<svg width="29" height="29" viewBox="0 0 29 29" fill="none" xmlns="http://www.w3.org/2000/svg">
<path d="M19.0768 26.9993H9.82244C4.47807 26.9993 3.48323 24.5122 3.22874 22.0946L2.36114 12.8287C2.2339 11.614 2.19919 9.82101 3.40225 8.47914C4.44336 7.32235 6.16698 6.76709 8.66565 6.76709H20.2335C22.7438 6.76709 24.4674 7.33392 25.4969 8.47914C26.7 9.82101 26.6653 11.614 26.538 12.8402L25.6705 22.083C25.416 24.5122 24.4211 26.9993 19.0768 26.9993ZM8.66565 8.49071C6.71067 8.49071 5.3688 8.87245 4.68629 9.63593C4.11946 10.2606 3.93438 11.2207 4.08476 12.6551L4.95235 21.921C5.14901 23.7488 5.64643 25.2642 9.82244 25.2642H19.0768C23.2412 25.2642 23.7502 23.7488 23.9468 21.9095L24.8144 12.6667C24.9648 11.2207 24.7797 10.2606 24.2129 9.63593C23.5304 8.87245 22.1885 8.49071 20.2335 8.49071H8.66565Z" fill="#4D4D4D"/>
<path d="M19.077 8.49125C18.6027 8.49125 18.2094 8.09794 18.2094 7.62366V6.69823C18.2094 4.63914 18.2094 3.86409 15.3753 3.86409H13.5244C10.6903 3.86409 10.6903 4.63914 10.6903 6.69823V7.62366C10.6903 8.09794 10.297 8.49125 9.82267 8.49125C9.34839 8.49125 8.95508 8.09794 8.95508 7.62366V6.69823C8.95508 4.66228 8.95508 2.12891 13.5244 2.12891H15.3753C19.9446 2.12891 19.9446 4.66228 19.9446 6.69823V7.62366C19.9446 8.09794 19.5513 8.49125 19.077 8.49125Z" fill="#4D4D4D"/>
<path d="M14.4497 20.0591C11.2686 20.0591 11.2686 18.0926 11.2686 16.9127V15.7212C11.2686 14.0901 11.6619 13.6968 13.2929 13.6968H15.6065C17.2376 13.6968 17.6309 14.0901 17.6309 15.7212V16.8779C17.6309 18.081 17.6309 20.0591 14.4497 20.0591ZM13.0037 15.432C13.0037 15.5245 13.0037 15.6286 13.0037 15.7212V16.9127C13.0037 18.1041 13.0037 18.3239 14.4497 18.3239C15.8957 18.3239 15.8957 18.1389 15.8957 16.9011V15.7212C15.8957 15.6286 15.8957 15.5245 15.8957 15.432C15.8032 15.432 15.6991 15.432 15.6065 15.432H13.2929C13.2004 15.432 13.0963 15.432 13.0037 15.432Z" fill="#4D4D4D"/>
<path d="M16.7619 17.7689C16.3339 17.7689 15.9522 17.445 15.9059 17.0055C15.8481 16.5312 16.1835 16.0916 16.6578 16.0338C19.7117 15.652 22.6384 14.4952 25.1024 12.7022C25.4841 12.413 26.0278 12.5056 26.317 12.8989C26.5946 13.2806 26.5137 13.8243 26.1204 14.1135C23.4135 16.08 20.2207 17.3409 16.866 17.7689C16.8313 17.7689 16.7966 17.7689 16.7619 17.7689Z" fill="#4D4D4D"/>
<path d="M12.136 17.7799C12.1013 17.7799 12.0666 17.7799 12.0319 17.7799C8.86225 17.4213 5.77362 16.2646 3.10144 14.4368C2.70813 14.1708 2.60402 13.6271 2.87008 13.2338C3.13614 12.8405 3.67983 12.7363 4.07314 13.0024C6.51397 14.6682 9.32497 15.7209 12.2169 16.0563C12.6912 16.1142 13.0383 16.5422 12.9804 17.0165C12.9457 17.456 12.5755 17.7799 12.136 17.7799Z" fill="#4D4D4D"/>
</svg>
