<svg width="101" height="100" viewBox="0 0 101 100" fill="none" xmlns="http://www.w3.org/2000/svg">
<path d="M50.5006 94.7917C25.7923 94.7917 5.70898 74.7084 5.70898 50C5.70898 25.2917 25.7923 5.20837 50.5006 5.20837C75.209 5.20837 95.2923 25.2917 95.2923 50C95.2923 74.7084 75.209 94.7917 50.5006 94.7917ZM50.5006 11.4584C29.2507 11.4584 11.959 28.75 11.959 50C11.959 71.25 29.2507 88.5417 50.5006 88.5417C71.7506 88.5417 89.0423 71.25 89.0423 50C89.0423 28.75 71.7506 11.4584 50.5006 11.4584Z" fill="#F10B0E"/>
<path d="M38.7083 64.9167C37.9167 64.9167 37.125 64.625 36.5 64C35.2917 62.7917 35.2917 60.7917 36.5 59.5833L60.0833 36C61.2917 34.7917 63.2917 34.7917 64.5 36C65.7083 37.2083 65.7083 39.2083 64.5 40.4167L40.9167 64C40.3333 64.625 39.5 64.9167 38.7083 64.9167Z" fill="#F10B0E"/>
<path d="M62.2917 64.9167C61.5 64.9167 60.7083 64.625 60.0833 64L36.5 40.4167C35.2917 39.2083 35.2917 37.2083 36.5 36C37.7083 34.7917 39.7083 34.7917 40.9167 36L64.5 59.5833C65.7083 60.7917 65.7083 62.7917 64.5 64C63.875 64.625 63.0833 64.9167 62.2917 64.9167Z" fill="#F10B0E"/>
</svg>
