<svg width="29" height="29" viewBox="0 0 29 29" fill="none" xmlns="http://www.w3.org/2000/svg">
<path d="M14.4492 26.933C9.82207 26.933 6.0625 23.613 6.0625 19.5295V15.2494C6.0625 14.7751 6.45581 14.3818 6.93009 14.3818C7.40438 14.3818 7.79768 14.7751 7.79768 15.2494C7.79768 18.2802 10.655 20.5707 14.4492 20.5707C18.2435 20.5707 21.1008 18.2802 21.1008 15.2494C21.1008 14.7751 21.4941 14.3818 21.9684 14.3818C22.4426 14.3818 22.836 14.7751 22.836 15.2494V19.5295C22.836 23.613 19.0764 26.933 14.4492 26.933ZM7.79768 19.6568C7.87866 22.7223 10.8285 25.1978 14.4492 25.1978C18.07 25.1978 21.0198 22.7223 21.1008 19.6568C19.5969 21.2879 17.214 22.3058 14.4492 22.3058C11.6845 22.3058 9.31308 21.2879 7.79768 19.6568Z" fill="#4D4D4D"/>
<path d="M14.4492 16.5224C11.2565 16.5224 8.38763 15.088 6.98792 12.7744C6.38639 11.7911 6.0625 10.6459 6.0625 9.46596C6.0625 7.47628 6.95323 5.60228 8.56117 4.19099C10.1344 2.81441 12.2282 2.0625 14.4492 2.0625C16.6703 2.0625 18.7525 2.81442 20.3373 4.17943C21.9452 5.60228 22.836 7.47628 22.836 9.46596C22.836 10.6459 22.5121 11.7795 21.9105 12.7744C20.5108 15.088 17.642 16.5224 14.4492 16.5224ZM14.4492 3.79768C12.6446 3.79768 10.9557 4.39921 9.69484 5.50973C8.46864 6.57398 7.79768 7.98527 7.79768 9.46596C7.79768 10.3335 8.02903 11.1433 8.46861 11.8721C9.56756 13.6767 11.858 14.7872 14.4492 14.7872C17.0404 14.7872 19.3309 13.6651 20.4298 11.8721C20.881 11.1433 21.1008 10.3335 21.1008 9.46596C21.1008 7.98527 20.4298 6.57398 19.1921 5.4866C17.9312 4.39921 16.2538 3.79768 14.4492 3.79768Z" fill="#4D4D4D"/>
<path d="M14.4492 22.3063C9.67168 22.3063 6.0625 19.2755 6.0625 15.2499V9.46596C6.0625 5.38249 9.82207 2.0625 14.4492 2.0625C16.6703 2.0625 18.7525 2.81442 20.3373 4.17943C21.9452 5.60228 22.836 7.47628 22.836 9.46596V15.2499C22.836 19.2755 19.2268 22.3063 14.4492 22.3063ZM14.4492 3.79768C10.7822 3.79768 7.79768 6.34262 7.79768 9.46596V15.2499C7.79768 18.2807 10.655 20.5711 14.4492 20.5711C18.2435 20.5711 21.1008 18.2807 21.1008 15.2499V9.46596C21.1008 7.98527 20.4298 6.57398 19.1921 5.4866C17.9312 4.39921 16.2538 3.79768 14.4492 3.79768Z" fill="#4D4D4D"/>
</svg>
