<svg width="24" height="25" viewBox="0 0 24 25" fill="none" xmlns="http://www.w3.org/2000/svg">
<path d="M21.5 11.6637V4.86367C21.5 3.36367 20.86 2.76367 19.27 2.76367H15.23C13.64 2.76367 13 3.36367 13 4.86367V11.6637C13 13.1637 13.64 13.7637 15.23 13.7637H19.27C20.86 13.7637 21.5 13.1637 21.5 11.6637Z" fill="#050150"/>
<path d="M11 13.8637V20.6637C11 22.1637 10.36 22.7637 8.77 22.7637H4.73C3.14 22.7637 2.5 22.1637 2.5 20.6637V13.8637C2.5 12.3637 3.14 11.7637 4.73 11.7637H8.77C10.36 11.7637 11 12.3637 11 13.8637Z" fill="#050150"/>
<path d="M21.5 20.6637V17.8637C21.5 16.3637 20.86 15.7637 19.27 15.7637H15.23C13.64 15.7637 13 16.3637 13 17.8637V20.6637C13 22.1637 13.64 22.7637 15.23 22.7637H19.27C20.86 22.7637 21.5 22.1637 21.5 20.6637Z" fill="#050150"/>
<path d="M11 7.66367V4.86367C11 3.36367 10.36 2.76367 8.77 2.76367H4.73C3.14 2.76367 2.5 3.36367 2.5 4.86367V7.66367C2.5 9.16367 3.14 9.76367 4.73 9.76367H8.77C10.36 9.76367 11 9.16367 11 7.66367Z" fill="#050150"/>
</svg>
