<svg width="101" height="100" viewBox="0 0 101 100" fill="none" xmlns="http://www.w3.org/2000/svg">
<path opacity="0.4" d="M85.916 42.4584H73.8744C63.9994 42.4584 55.9577 34.4167 55.9577 24.5417V12.5C55.9577 10.2084 54.0827 8.33337 51.791 8.33337H34.1243C21.291 8.33337 10.916 16.6667 10.916 31.5417V68.4584C10.916 83.3334 21.291 91.6667 34.1243 91.6667H66.8744C79.7077 91.6667 90.0827 83.3334 90.0827 68.4584V46.625C90.0827 44.3334 88.2077 42.4584 85.916 42.4584Z" fill="#050150"/>
<path d="M66.3327 9.20839C64.6243 7.50005 61.666 8.66672 61.666 11.0417V25.5834C61.666 31.6667 66.8327 36.7084 73.1243 36.7084C77.0827 36.7501 82.5827 36.75 87.291 36.75C89.666 36.75 90.916 33.9584 89.2493 32.2917C83.2493 26.2501 72.4993 15.3751 66.3327 9.20839Z" fill="#050150"/>
<path d="M48.5423 51.9584L40.209 43.625C40.1673 43.5834 40.1257 43.5834 40.1257 43.5417C39.8757 43.2917 39.5423 43.0834 39.209 42.9167C39.1673 42.9167 39.1673 42.9167 39.1257 42.9167C38.7923 42.7917 38.459 42.75 38.1257 42.7084C38.0007 42.7084 37.9173 42.7084 37.7923 42.7084C37.5423 42.7084 37.2507 42.7917 37.0007 42.875C36.8757 42.9167 36.7923 42.9584 36.709 43C36.3756 43.1667 36.0423 43.3334 35.7923 43.625L27.459 51.9584C26.2507 53.1667 26.2507 55.1667 27.459 56.375C28.6673 57.5834 30.6673 57.5834 31.8757 56.375L34.8757 53.375V70.8334C34.8757 72.5417 36.2923 73.9584 38.0007 73.9584C39.709 73.9584 41.1257 72.5417 41.1257 70.8334V53.375L44.1257 56.375C44.7507 57 45.5423 57.2917 46.334 57.2917C47.1257 57.2917 47.9173 57 48.5423 56.375C49.7507 55.1667 49.7507 53.1667 48.5423 51.9584Z" fill="#050150"/>
</svg>
