<svg width="16" height="16" viewBox="0 0 16 16" fill="none" xmlns="http://www.w3.org/2000/svg">
<mask id="path-1-inside-1_359_1356" fill="white">
<path d="M10.0007 15.1668H6.00065C2.38065 15.1668 0.833984 13.6202 0.833984 10.0002V6.00016C0.833984 2.38016 2.38065 0.833496 6.00065 0.833496H7.33398C7.60732 0.833496 7.83398 1.06016 7.83398 1.3335C7.83398 1.60683 7.60732 1.8335 7.33398 1.8335H6.00065C2.92732 1.8335 1.83398 2.92683 1.83398 6.00016V10.0002C1.83398 13.0735 2.92732 14.1668 6.00065 14.1668H10.0007C13.074 14.1668 14.1673 13.0735 14.1673 10.0002V8.66683C14.1673 8.3935 14.394 8.16683 14.6673 8.16683C14.9407 8.16683 15.1673 8.3935 15.1673 8.66683V10.0002C15.1673 13.6202 13.6207 15.1668 10.0007 15.1668Z"/>
</mask>
<path d="M10.0007 15.1668H6.00065C2.38065 15.1668 0.833984 13.6202 0.833984 10.0002V6.00016C0.833984 2.38016 2.38065 0.833496 6.00065 0.833496H7.33398C7.60732 0.833496 7.83398 1.06016 7.83398 1.3335C7.83398 1.60683 7.60732 1.8335 7.33398 1.8335H6.00065C2.92732 1.8335 1.83398 2.92683 1.83398 6.00016V10.0002C1.83398 13.0735 2.92732 14.1668 6.00065 14.1668H10.0007C13.074 14.1668 14.1673 13.0735 14.1673 10.0002V8.66683C14.1673 8.3935 14.394 8.16683 14.6673 8.16683C14.9407 8.16683 15.1673 8.3935 15.1673 8.66683V10.0002C15.1673 13.6202 13.6207 15.1668 10.0007 15.1668Z" fill="#C2C2C2"/>
<path d="M10.0007 15.1668V13.6668H6.00065V15.1668V16.6668H10.0007V15.1668ZM6.00065 15.1668V13.6668C4.36284 13.6668 3.55126 13.3111 3.12048 12.8803C2.6897 12.4496 2.33398 11.638 2.33398 10.0002H0.833984H-0.666016C-0.666016 11.9823 -0.248398 13.7541 0.999158 15.0017C2.24671 16.2492 4.01846 16.6668 6.00065 16.6668V15.1668ZM0.833984 10.0002H2.33398V6.00016H0.833984H-0.666016V10.0002H0.833984ZM0.833984 6.00016H2.33398C2.33398 4.36235 2.6897 3.55077 3.12048 3.11999C3.55126 2.68921 4.36284 2.3335 6.00065 2.3335V0.833496V-0.666504C4.01846 -0.666504 2.24671 -0.248886 0.999158 0.998669C-0.248398 2.24622 -0.666016 4.01798 -0.666016 6.00016H0.833984ZM6.00065 0.833496V2.3335H7.33398V0.833496V-0.666504H6.00065V0.833496ZM7.33398 0.833496V2.3335C6.77889 2.3335 6.33398 1.88859 6.33398 1.3335H7.83398H9.33398C9.33398 0.231736 8.43575 -0.666504 7.33398 -0.666504V0.833496ZM7.83398 1.3335H6.33398C6.33398 0.778402 6.77889 0.333496 7.33398 0.333496V1.8335V3.3335C8.43575 3.3335 9.33398 2.43526 9.33398 1.3335H7.83398ZM7.33398 1.8335V0.333496H6.00065V1.8335V3.3335H7.33398V1.8335ZM6.00065 1.8335V0.333496C4.35815 0.333496 2.79778 0.610042 1.70416 1.70367C0.61053 2.7973 0.333984 4.35767 0.333984 6.00016H1.83398H3.33398C3.33398 4.56933 3.60411 4.04636 3.82548 3.82499C4.04685 3.60362 4.56981 3.3335 6.00065 3.3335V1.8335ZM1.83398 6.00016H0.333984V10.0002H1.83398H3.33398V6.00016H1.83398ZM1.83398 10.0002H0.333984C0.333984 11.6427 0.61053 13.203 1.70416 14.2967C2.79778 15.3903 4.35815 15.6668 6.00065 15.6668V14.1668V12.6668C4.56981 12.6668 4.04685 12.3967 3.82548 12.1753C3.60411 11.954 3.33398 11.431 3.33398 10.0002H1.83398ZM6.00065 14.1668V15.6668H10.0007V14.1668V12.6668H6.00065V14.1668ZM10.0007 14.1668V15.6668C11.6431 15.6668 13.2035 15.3903 14.2971 14.2967C15.3908 13.203 15.6673 11.6427 15.6673 10.0002H14.1673H12.6673C12.6673 11.431 12.3972 11.954 12.1758 12.1753C11.9545 12.3967 11.4315 12.6668 10.0007 12.6668V14.1668ZM14.1673 10.0002H15.6673V8.66683H14.1673H12.6673V10.0002H14.1673ZM14.1673 8.66683H15.6673C15.6673 9.22192 15.2224 9.66683 14.6673 9.66683V8.16683V6.66683C13.5656 6.66683 12.6673 7.56507 12.6673 8.66683H14.1673ZM14.6673 8.16683V9.66683C14.1122 9.66683 13.6673 9.22192 13.6673 8.66683H15.1673H16.6673C16.6673 7.56507 15.7691 6.66683 14.6673 6.66683V8.16683ZM15.1673 8.66683H13.6673V10.0002H15.1673H16.6673V8.66683H15.1673ZM15.1673 10.0002H13.6673C13.6673 11.638 13.3116 12.4496 12.8808 12.8803C12.45 13.3111 11.6385 13.6668 10.0007 13.6668V15.1668V16.6668C11.9828 16.6668 13.7546 16.2492 15.0021 15.0017C16.2497 13.7541 16.6673 11.9823 16.6673 10.0002H15.1673Z" fill="#C2C2C2" mask="url(#path-1-inside-1_359_1356)"/>
<mask id="path-3-inside-2_359_1356" fill="white">
<path d="M5.66688 11.7934C5.26022 11.7934 4.88688 11.6467 4.61355 11.38C4.28688 11.0534 4.14688 10.58 4.22022 10.08L4.50688 8.07337C4.56022 7.68671 4.81355 7.18671 5.08688 6.91337L10.3402 1.66004C11.6669 0.333372 13.0135 0.333372 14.3402 1.66004C15.0669 2.38671 15.3935 3.12671 15.3269 3.86671C15.2669 4.46671 14.9469 5.05337 14.3402 5.65337L9.08688 10.9067C8.81355 11.18 8.31355 11.4334 7.92688 11.4867L5.92022 11.7734C5.83355 11.7934 5.74688 11.7934 5.66688 11.7934ZM11.0469 2.36671L5.79355 7.62004C5.66688 7.74671 5.52022 8.04004 5.49355 8.21337L5.20688 10.22C5.18022 10.4134 5.22022 10.5734 5.32022 10.6734C5.42022 10.7734 5.58022 10.8134 5.77355 10.7867L7.78022 10.5C7.95355 10.4734 8.25355 10.3267 8.37355 10.2L13.6269 4.94671C14.0602 4.51337 14.2869 4.12671 14.3202 3.76671C14.3602 3.33337 14.1335 2.87337 13.6269 2.36004C12.5602 1.29337 11.8269 1.59337 11.0469 2.36671Z"/>
</mask>
<path d="M5.66688 11.7934C5.26022 11.7934 4.88688 11.6467 4.61355 11.38C4.28688 11.0534 4.14688 10.58 4.22022 10.08L4.50688 8.07337C4.56022 7.68671 4.81355 7.18671 5.08688 6.91337L10.3402 1.66004C11.6669 0.333372 13.0135 0.333372 14.3402 1.66004C15.0669 2.38671 15.3935 3.12671 15.3269 3.86671C15.2669 4.46671 14.9469 5.05337 14.3402 5.65337L9.08688 10.9067C8.81355 11.18 8.31355 11.4334 7.92688 11.4867L5.92022 11.7734C5.83355 11.7934 5.74688 11.7934 5.66688 11.7934ZM11.0469 2.36671L5.79355 7.62004C5.66688 7.74671 5.52022 8.04004 5.49355 8.21337L5.20688 10.22C5.18022 10.4134 5.22022 10.5734 5.32022 10.6734C5.42022 10.7734 5.58022 10.8134 5.77355 10.7867L7.78022 10.5C7.95355 10.4734 8.25355 10.3267 8.37355 10.2L13.6269 4.94671C14.0602 4.51337 14.2869 4.12671 14.3202 3.76671C14.3602 3.33337 14.1335 2.87337 13.6269 2.36004C12.5602 1.29337 11.8269 1.59337 11.0469 2.36671Z" fill="#C2C2C2"/>
<path d="M4.61355 11.38L3.55289 12.4407L3.55944 12.4472L3.56606 12.4537L4.61355 11.38ZM4.22022 10.08L5.70435 10.2977L5.70514 10.2922L4.22022 10.08ZM4.50688 8.07337L5.99182 8.28551L5.99281 8.27833L4.50688 8.07337ZM5.08688 6.91337L4.02622 5.85271L4.02622 5.85271L5.08688 6.91337ZM10.3402 1.66004L11.4009 2.7207L11.4009 2.7207L10.3402 1.66004ZM15.3269 3.86671L16.8194 4.01596L16.8202 4.00863L16.8208 4.0013L15.3269 3.86671ZM14.3402 5.65337L13.2854 4.58685L13.2796 4.59271L14.3402 5.65337ZM9.08688 10.9067L10.1475 11.9674L10.1475 11.9674L9.08688 10.9067ZM7.92688 11.4867L7.72192 10.0008L7.71475 10.0018L7.92688 11.4867ZM5.92022 11.7734L5.70808 10.2884L5.64501 10.2975L5.58293 10.3118L5.92022 11.7734ZM11.0469 2.36671L9.99077 1.30149L9.98622 1.30605L11.0469 2.36671ZM5.79355 7.62004L6.85421 8.6807L5.79355 7.62004ZM5.49355 8.21337L4.01099 7.98529L4.00977 7.99326L4.00862 8.00124L5.49355 8.21337ZM5.20688 10.22L3.72194 10.0079L3.72095 10.0151L5.20688 10.22ZM5.77355 10.7867L5.97851 12.2727L5.98568 12.2716L5.77355 10.7867ZM7.78022 10.5L7.99235 11.985L8.00033 11.9838L8.0083 11.9826L7.78022 10.5ZM8.37355 10.2L7.31289 9.13938L7.29856 9.15371L7.28462 9.16842L8.37355 10.2ZM14.3202 3.76671L15.8138 3.905L15.8139 3.90458L14.3202 3.76671ZM13.6269 2.36004L14.6945 1.30631L14.6875 1.29938L13.6269 2.36004ZM5.66688 11.7934V10.2934C5.6442 10.2934 5.6357 10.2894 5.63829 10.2904C5.6394 10.2909 5.6425 10.2922 5.64689 10.295C5.65133 10.2979 5.65624 10.3017 5.66104 10.3064L4.61355 11.38L3.56606 12.4537C4.13856 13.0122 4.89617 13.2934 5.66688 13.2934V11.7934ZM4.61355 11.38L5.67421 10.3194C5.68316 10.3283 5.69044 10.338 5.69574 10.347C5.70094 10.3558 5.70293 10.3617 5.70332 10.363C5.70417 10.3658 5.69737 10.3452 5.70434 10.2977L4.22022 10.08L2.73609 9.86237C2.60322 10.7683 2.8483 11.7361 3.55289 12.4407L4.61355 11.38ZM4.22022 10.08L5.70514 10.2922L5.99181 8.2855L4.50688 8.07337L3.02196 7.86124L2.73529 9.86791L4.22022 10.08ZM4.50688 8.07337L5.99281 8.27833C5.99079 8.29301 5.99107 8.28198 6.00319 8.24598C6.01461 8.21203 6.03197 8.16961 6.05494 8.12385C6.0779 8.07813 6.10193 8.03808 6.12315 8.00732C6.14557 7.97483 6.15578 7.9658 6.14754 7.97403L5.08688 6.91337L4.02622 5.85271C3.52767 6.35126 3.12012 7.14943 3.02095 7.86842L4.50688 8.07337ZM5.08688 6.91337L6.14754 7.97403L11.4009 2.7207L10.3402 1.66004L9.27956 0.599379L4.02622 5.85271L5.08688 6.91337ZM10.3402 1.66004L11.4009 2.7207C11.8967 2.22488 12.206 2.16504 12.3402 2.16504C12.4745 2.16504 12.7837 2.22488 13.2796 2.7207L14.3402 1.66004L15.4009 0.599379C14.57 -0.231467 13.5426 -0.834961 12.3402 -0.834961C11.1378 -0.834961 10.1104 -0.231467 9.27956 0.599379L10.3402 1.66004ZM14.3402 1.66004L13.2796 2.7207C13.8118 3.25295 13.8466 3.58016 13.8329 3.73212L15.3269 3.86671L16.8208 4.0013C16.9405 2.67325 16.322 1.52046 15.4009 0.599379L14.3402 1.66004ZM15.3269 3.86671L13.8343 3.71745C13.8203 3.85738 13.7385 4.13877 13.2854 4.58687L14.3402 5.65337L15.395 6.71988C16.1553 5.96798 16.7134 5.07603 16.8194 4.01596L15.3269 3.86671ZM14.3402 5.65337L13.2796 4.59271L8.02622 9.84605L9.08688 10.9067L10.1475 11.9674L15.4009 6.71403L14.3402 5.65337ZM9.08688 10.9067L8.02622 9.84605C8.03446 9.83781 8.02542 9.84802 7.99293 9.87044C7.96217 9.89166 7.92213 9.91569 7.87641 9.93864C7.83065 9.96162 7.78822 9.97897 7.75427 9.9904C7.71827 10.0025 7.70724 10.0028 7.72193 10.0008L7.92688 11.4867L8.13184 12.9726C8.85083 12.8735 9.64899 12.4659 10.1475 11.9674L9.08688 10.9067ZM7.92688 11.4867L7.71475 10.0018L5.70808 10.2884L5.92022 11.7734L6.13235 13.2583L8.13901 12.9716L7.92688 11.4867ZM5.92022 11.7734L5.58293 10.3118C5.64509 10.2974 5.68977 10.2942 5.70296 10.2935C5.7099 10.2931 5.7118 10.2931 5.70541 10.2932C5.69781 10.2933 5.68858 10.2934 5.66688 10.2934V11.7934V13.2934C5.72409 13.2934 5.97881 13.2993 6.25751 13.235L5.92022 11.7734ZM11.0469 2.36671L9.98622 1.30605L4.73289 6.55938L5.79355 7.62004L6.85421 8.6807L12.1075 3.42737L11.0469 2.36671ZM5.79355 7.62004L4.73289 6.55938C4.50807 6.7842 4.35481 7.04891 4.26643 7.22436C4.17792 7.40006 4.0584 7.67711 4.01099 7.98529L5.49355 8.21337L6.97611 8.44146C6.96893 8.4881 6.9605 8.52174 6.95559 8.53965C6.95039 8.55864 6.94617 8.57072 6.94443 8.57556C6.94136 8.58403 6.94158 8.58216 6.94567 8.57405C6.94977 8.5659 6.95092 8.56506 6.94548 8.57324C6.94239 8.57787 6.93487 8.58887 6.92229 8.60479C6.91036 8.61988 6.8879 8.647 6.85421 8.6807L5.79355 7.62004ZM5.49355 8.21337L4.00862 8.00124L3.72196 10.0079L5.20688 10.22L6.69181 10.4322L6.97847 8.4255L5.49355 8.21337ZM5.20688 10.22L3.72095 10.0151C3.65618 10.4846 3.71254 11.187 4.25956 11.734L5.32022 10.6734L6.38088 9.61271C6.72789 9.95973 6.70425 10.3421 6.69281 10.425L5.20688 10.22ZM5.32022 10.6734L4.25956 11.734C4.80657 12.281 5.50895 12.3374 5.97851 12.2726L5.77355 10.7867L5.56859 9.30077C5.65148 9.28934 6.03386 9.2657 6.38088 9.61271L5.32022 10.6734ZM5.77355 10.7867L5.98568 12.2716L7.99235 11.985L7.78022 10.5L7.56808 9.01511L5.56142 9.30178L5.77355 10.7867ZM7.78022 10.5L8.0083 11.9826C8.31248 11.9358 8.58898 11.8185 8.7677 11.7292C8.93783 11.6441 9.22485 11.4825 9.46248 11.2317L8.37355 10.2L7.28462 9.16842C7.32517 9.12562 7.35881 9.09696 7.37785 9.08158C7.39798 9.06531 7.41253 9.05523 7.4194 9.05062C7.43196 9.04221 7.4339 9.04198 7.42606 9.0459C7.41862 9.04962 7.41618 9.05015 7.4233 9.0476C7.42746 9.04611 7.43868 9.04222 7.45671 9.03732C7.47358 9.03272 7.50632 9.02453 7.55213 9.01748L7.78022 10.5ZM8.37355 10.2L9.43421 11.2607L14.6875 6.00737L13.6269 4.94671L12.5662 3.88605L7.31289 9.13938L8.37355 10.2ZM13.6269 4.94671L14.6875 6.00737C15.2124 5.48248 15.7325 4.78346 15.8138 3.905L14.3202 3.76671L12.8266 3.62841C12.8346 3.54213 12.8602 3.51827 12.8301 3.56964C12.7978 3.62466 12.7223 3.72992 12.5662 3.88605L13.6269 4.94671ZM14.3202 3.76671L15.8139 3.90458C15.9148 2.8106 15.3131 1.9331 14.6945 1.30633L13.6269 2.36004L12.5593 3.41374C12.7409 3.59771 12.8112 3.712 12.8331 3.75649C12.8488 3.78843 12.8167 3.73544 12.8266 3.62883L14.3202 3.76671ZM13.6269 2.36004L14.6875 1.29938C14.0062 0.618046 13.1409 0.0825981 12.0911 0.179756C11.1261 0.269077 10.4259 0.870098 9.99078 1.3015L11.0469 2.36671L12.103 3.43191C12.256 3.28015 12.3564 3.20315 12.4159 3.16648C12.4685 3.13407 12.4464 3.1597 12.3676 3.16699C12.2776 3.17532 12.2247 3.15005 12.2394 3.15703C12.2701 3.17164 12.3789 3.23338 12.5662 3.4207L13.6269 2.36004Z" fill="#C2C2C2" mask="url(#path-3-inside-2_359_1356)"/>
<path d="M13.233 6.55319C13.1864 6.55319 13.1397 6.54652 13.0997 6.53319C11.3464 6.03986 9.95305 4.64652 9.45971 2.89319C9.38638 2.62652 9.53971 2.35319 9.80638 2.27319C10.073 2.19986 10.3464 2.35319 10.4197 2.61986C10.8197 4.03986 11.9464 5.16652 13.3664 5.56652C13.633 5.63986 13.7864 5.91985 13.713 6.18652C13.653 6.41319 13.453 6.55319 13.233 6.55319Z" fill="#C2C2C2"/>
</svg>
