<svg width="29" height="28" viewBox="0 0 29 28" fill="none" xmlns="http://www.w3.org/2000/svg">
<path d="M23.438 15.9442H18.7646C16.4395 15.9442 15.3174 14.8684 15.3174 12.6474V4.78123C15.3174 2.56019 16.451 1.48438 18.7646 1.48438H23.438C25.7632 1.48438 26.8853 2.56019 26.8853 4.78123V12.6474C26.8853 14.8684 25.7516 15.9442 23.438 15.9442ZM18.7646 3.21956C17.2955 3.21956 17.0526 3.61287 17.0526 4.78123V12.6474C17.0526 13.8158 17.2955 14.2091 18.7646 14.2091H23.438C24.9072 14.2091 25.1501 13.8158 25.1501 12.6474V4.78123C25.1501 3.61287 24.9072 3.21956 23.438 3.21956H18.7646V3.21956Z" fill="#4D4D4D"/>
<path d="M23.438 26.3551H18.7646C16.4395 26.3551 15.3174 25.2793 15.3174 23.0583V20.9761C15.3174 18.755 16.451 17.6792 18.7646 17.6792H23.438C25.7632 17.6792 26.8853 18.755 26.8853 20.9761V23.0583C26.8853 25.2793 25.7516 26.3551 23.438 26.3551ZM18.7646 19.4144C17.2955 19.4144 17.0526 19.8077 17.0526 20.9761V23.0583C17.0526 24.2266 17.2955 24.6199 18.7646 24.6199H23.438C24.9072 24.6199 25.1501 24.2266 25.1501 23.0583V20.9761C25.1501 19.8077 24.9072 19.4144 23.438 19.4144H18.7646Z" fill="#4D4D4D"/>
<path d="M10.1343 26.3554H5.46091C3.13576 26.3554 2.01367 25.2796 2.01367 23.0585V15.1924C2.01367 12.9713 3.14733 11.8955 5.46091 11.8955H10.1343C12.4595 11.8955 13.5816 12.9713 13.5816 15.1924V23.0585C13.5816 25.2796 12.4479 26.3554 10.1343 26.3554ZM5.46091 13.6307C3.99178 13.6307 3.74886 14.024 3.74886 15.1924V23.0585C3.74886 24.2269 3.99178 24.6202 5.46091 24.6202H10.1343C11.6035 24.6202 11.8464 24.2269 11.8464 23.0585V15.1924C11.8464 14.024 11.6035 13.6307 10.1343 13.6307H5.46091V13.6307Z" fill="#4D4D4D"/>
<path d="M10.1343 10.1603H5.46091C3.13576 10.1603 2.01367 9.08448 2.01367 6.86345V4.78123C2.01367 2.56019 3.14733 1.48438 5.46091 1.48438H10.1343C12.4595 1.48438 13.5816 2.56019 13.5816 4.78123V6.86345C13.5816 9.08448 12.4479 10.1603 10.1343 10.1603ZM5.46091 3.21956C3.99178 3.21956 3.74886 3.61287 3.74886 4.78123V6.86345C3.74886 8.03181 3.99178 8.42511 5.46091 8.42511H10.1343C11.6035 8.42511 11.8464 8.03181 11.8464 6.86345V4.78123C11.8464 3.61287 11.6035 3.21956 10.1343 3.21956H5.46091V3.21956Z" fill="#4D4D4D"/>
</svg>
