<svg width="80" height="80" viewBox="0 0 80 80" fill="none" xmlns="http://www.w3.org/2000/svg">
<rect width="80" height="80" rx="40" fill="#050150"/>
<path d="M36.0013 28.667V26.667M30.7488 30.7479L29.3346 29.3337M30.7488 41.3337L29.3346 42.7479M41.3346 30.7479L42.7488 29.3337M28.668 36.0003H26.668M45.1539 45.5864L41.8316 51.7564C41.4521 52.4612 41.2623 52.8137 41.034 52.9028C40.8358 52.9802 40.6127 52.9583 40.4333 52.844C40.2266 52.7123 40.1087 52.3298 39.8731 51.5647L35.2616 36.594C35.069 35.969 34.9728 35.6565 35.0502 35.4454C35.1177 35.2616 35.2626 35.1167 35.4464 35.0493C35.6575 34.9718 35.97 35.0681 36.595 35.2606L51.5656 39.8721C52.3307 40.1078 52.7132 40.2256 52.8449 40.4323C52.9592 40.6117 52.9811 40.8349 52.9037 41.033C52.8146 41.2614 52.4622 41.4511 51.7573 41.8307L45.5874 45.153C45.4827 45.2094 45.4303 45.2376 45.3844 45.2738C45.3437 45.306 45.3069 45.3428 45.2748 45.3835C45.2385 45.4293 45.2103 45.4817 45.1539 45.5864Z" stroke="white" stroke-width="1.4" stroke-linecap="round" stroke-linejoin="round"/>
</svg>
