<svg width="64" height="64" viewBox="0 0 64 64" fill="none" xmlns="http://www.w3.org/2000/svg">
<rect width="64" height="64" rx="32" fill="#C2C2C2"/>
<path fill-rule="evenodd" clip-rule="evenodd" d="M37.6972 21.4049C37.4673 21.0376 37.1287 20.7511 36.7284 20.5853C36.3281 20.4195 35.8861 20.3827 35.4638 20.4799L32.4672 21.1682C32.1601 21.2388 31.8409 21.2388 31.5338 21.1682L28.5372 20.4799C28.1149 20.3827 27.6729 20.4195 27.2726 20.5853C26.8723 20.7511 26.5337 21.0376 26.3038 21.4049L24.6705 24.0115C24.5038 24.2782 24.2788 24.5032 24.0122 24.6715L21.4055 26.3049C21.0389 26.5345 20.7528 26.8726 20.5871 27.2722C20.4213 27.6718 20.3841 28.1131 20.4805 28.5349L21.1688 31.5349C21.2392 31.8414 21.2392 32.1599 21.1688 32.4665L20.4805 35.4649C20.3837 35.8868 20.4207 36.3285 20.5865 36.7284C20.7523 37.1284 21.0385 37.4668 21.4055 37.6965L24.0122 39.3299C24.2788 39.4965 24.5038 39.7215 24.6722 39.9882L26.3055 42.5949C26.7755 43.3465 27.6722 43.7182 28.5372 43.5199L31.5338 42.8315C31.8409 42.7609 32.1601 42.7609 32.4672 42.8315L35.4655 43.5199C35.8875 43.6167 36.3291 43.5796 36.7291 43.4138C37.129 43.2481 37.4674 42.9618 37.6972 42.5949L39.3305 39.9882C39.4972 39.7215 39.7222 39.4965 39.9888 39.3299L42.5972 37.6965C42.9641 37.4664 43.2503 37.1277 43.4157 36.7274C43.5812 36.3271 43.6178 35.8852 43.5205 35.4632L42.8338 32.4665C42.7632 32.1594 42.7632 31.8403 42.8338 31.5332L43.5222 28.5349C43.6191 28.113 43.5823 27.6715 43.4169 27.2716C43.2514 26.8716 42.9655 26.5332 42.5988 26.3032L39.9905 24.6699C39.7242 24.5029 39.4991 24.2778 39.3322 24.0115L37.6972 21.4049ZM36.8588 28.2832C36.9619 28.0936 36.9875 27.8715 36.9301 27.6635C36.8727 27.4555 36.7369 27.2778 36.5512 27.1679C36.3655 27.058 36.1444 27.0244 35.9345 27.0742C35.7245 27.124 35.5421 27.2533 35.4255 27.4349L31.0672 34.8115L28.4355 32.2915C28.3574 32.2114 28.264 32.1477 28.1608 32.1045C28.0576 32.0612 27.9468 32.0391 27.8349 32.0396C27.723 32.0401 27.6123 32.0631 27.5095 32.1073C27.4067 32.1515 27.3138 32.2159 27.2365 32.2967C27.1591 32.3776 27.0988 32.4732 27.0592 32.5778C27.0195 32.6825 27.0014 32.794 27.0058 32.9059C27.0102 33.0177 27.0371 33.1274 27.0849 33.2286C27.1327 33.3298 27.2003 33.4204 27.2838 33.4949L30.6738 36.7432C30.7646 36.8299 30.8737 36.8951 30.9932 36.9337C31.1126 36.9724 31.2392 36.9836 31.3636 36.9664C31.4879 36.9493 31.6068 36.9042 31.7113 36.8347C31.8158 36.7652 31.9033 36.6729 31.9672 36.5649L36.8588 28.2832Z" fill="#4D4D4D"/>
</svg>
