<svg width="34" height="35" viewBox="0 0 34 35" fill="none" xmlns="http://www.w3.org/2000/svg">
<path d="M13.5 24.7637H13C9 24.7637 7 23.7637 7 18.7637V13.7637C7 9.76367 9 7.76367 13 7.76367H21C25 7.76367 27 9.76367 27 13.7637V18.7637C27 22.7637 25 24.7637 21 24.7637H20.5C20.19 24.7637 19.89 24.9137 19.7 25.1637L18.2 27.1637C17.54 28.0437 16.46 28.0437 15.8 27.1637L14.3 25.1637C14.14 24.9437 13.77 24.7637 13.5 24.7637Z" stroke="#4D4D4D" stroke-width="1.5" stroke-miterlimit="10" stroke-linecap="round" stroke-linejoin="round"/>
<path d="M12 13.7637H22" stroke="#4D4D4D" stroke-width="1.5" stroke-linecap="round" stroke-linejoin="round"/>
<path d="M12 18.7637H18" stroke="#4D4D4D" stroke-width="1.5" stroke-linecap="round" stroke-linejoin="round"/>
</svg>
