<svg width="64" height="64" viewBox="0 0 64 64" fill="none" xmlns="http://www.w3.org/2000/svg">
<rect width="64" height="64" rx="32" fill="#C2C2C2"/>
<path d="M36.3865 27.7998L30.0798 34.1198L27.6132 31.6398C27.3621 31.3888 27.0216 31.2477 26.6665 31.2477C26.3114 31.2477 25.9709 31.3888 25.7198 31.6398C25.4687 31.8909 25.3277 32.2314 25.3277 32.5865C25.3277 32.7623 25.3623 32.9364 25.4296 33.0988C25.4969 33.2613 25.5955 33.4089 25.7198 33.5332L29.1332 36.9465C29.2571 37.0715 29.4046 37.1707 29.5671 37.2384C29.7295 37.3061 29.9038 37.3409 30.0798 37.3409C30.2558 37.3409 30.4301 37.3061 30.5926 37.2384C30.7551 37.1707 30.9025 37.0715 31.0265 36.9465L38.2798 29.6932C38.4041 29.5689 38.5028 29.4213 38.57 29.2588C38.6373 29.0964 38.6719 28.9223 38.6719 28.7465C38.6719 28.5707 38.6373 28.3966 38.57 28.2342C38.5028 28.0717 38.4041 27.9242 38.2798 27.7998C38.1555 27.6755 38.0079 27.5769 37.8455 27.5096C37.6831 27.4423 37.509 27.4077 37.3332 27.4077C37.1573 27.4077 36.9833 27.4423 36.8208 27.5096C36.6584 27.5769 36.5108 27.6755 36.3865 27.7998ZM31.9998 18.6665C30.2489 18.6665 28.515 19.0114 26.8974 19.6814C25.2797 20.3515 23.8098 21.3336 22.5717 22.5717C20.0712 25.0722 18.6665 28.4636 18.6665 31.9998C18.656 35.0785 19.7219 38.064 21.6798 40.4398L19.0132 43.1065C18.8281 43.294 18.7028 43.5321 18.653 43.7908C18.6032 44.0494 18.631 44.317 18.7332 44.5598C18.8439 44.7997 19.0234 45.0013 19.249 45.139C19.4745 45.2767 19.7358 45.3443 19.9998 45.3332H31.9998C35.536 45.3332 38.9274 43.9284 41.4279 41.4279C43.9284 38.9274 45.3332 35.5361 45.3332 31.9998C45.3332 28.4636 43.9284 25.0722 41.4279 22.5717C38.9274 20.0713 35.536 18.6665 31.9998 18.6665ZM31.9998 42.6665H23.2132L24.4532 41.4265C24.7015 41.1767 24.8409 40.8388 24.8409 40.4865C24.8409 40.1343 24.7015 39.7963 24.4532 39.5465C22.7073 37.8026 21.6201 35.5072 21.3767 33.0516C21.1334 30.5959 21.7491 28.1318 23.1188 26.0792C24.4885 24.0266 26.5275 22.5123 28.8885 21.7945C31.2495 21.0766 33.7863 21.1996 36.0668 22.1424C38.3473 23.0852 40.2303 24.7895 41.3951 26.965C42.5599 29.1405 42.9343 31.6526 42.4547 34.0732C41.975 36.4938 40.6709 38.6732 38.7645 40.2402C36.8582 41.8071 34.4675 42.6646 31.9998 42.6665Z" fill="#4D4D4D"/>
</svg>
