<svg width="34" height="35" viewBox="0 0 34 35" fill="none" xmlns="http://www.w3.org/2000/svg">
<path d="M17 20.7637C18.6569 20.7637 20 19.4205 20 17.7637C20 16.1068 18.6569 14.7637 17 14.7637C15.3431 14.7637 14 16.1068 14 17.7637C14 19.4205 15.3431 20.7637 17 20.7637Z" stroke="black" stroke-width="1.5" stroke-miterlimit="10" stroke-linecap="round" stroke-linejoin="round"/>
<path d="M7 18.6431V16.8831C7 15.8431 7.85 14.9831 8.9 14.9831C10.71 14.9831 11.45 13.7031 10.54 12.1331C10.02 11.2331 10.33 10.0631 11.24 9.54312L12.97 8.55312C13.76 8.08312 14.78 8.36312 15.25 9.15312L15.36 9.34312C16.26 10.9131 17.74 10.9131 18.65 9.34312L18.76 9.15312C19.23 8.36312 20.25 8.08312 21.04 8.55312L22.77 9.54312C23.68 10.0631 23.99 11.2331 23.47 12.1331C22.56 13.7031 23.3 14.9831 25.11 14.9831C26.15 14.9831 27.01 15.8331 27.01 16.8831V18.6431C27.01 19.6831 26.16 20.5431 25.11 20.5431C23.3 20.5431 22.56 21.8231 23.47 23.3931C23.99 24.3031 23.68 25.4631 22.77 25.9831L21.04 26.9731C20.25 27.4431 19.23 27.1631 18.76 26.3731L18.65 26.1831C17.75 24.6131 16.27 24.6131 15.36 26.1831L15.25 26.3731C14.78 27.1631 13.76 27.4431 12.97 26.9731L11.24 25.9831C10.33 25.4631 10.02 24.2931 10.54 23.3931C11.45 21.8231 10.71 20.5431 8.9 20.5431C7.85 20.5431 7 19.6831 7 18.6431Z" stroke="black" stroke-width="1.5" stroke-miterlimit="10" stroke-linecap="round" stroke-linejoin="round"/>
</svg>
