<svg width="44" height="44" viewBox="0 0 44 44" fill="none" xmlns="http://www.w3.org/2000/svg">
<rect x="0.05" y="0.05" width="43.9" height="43.9" rx="19.95" fill="white"/>
<rect x="0.05" y="0.05" width="43.9" height="43.9" rx="19.95" stroke="black" stroke-width="0.1"/>
<path d="M21.4604 24.4794C19.5004 24.4794 17.9004 22.8794 17.9004 20.9194C17.9004 18.9594 19.5004 17.3594 21.4604 17.3594C23.4204 17.3594 25.0204 18.9594 25.0204 20.9194C25.0204 22.8794 23.4204 24.4794 21.4604 24.4794ZM21.4604 18.8694C20.3304 18.8694 19.4004 19.7894 19.4004 20.9294C19.4004 22.0694 20.3204 22.9894 21.4604 22.9894C22.6004 22.9894 23.5204 22.0694 23.5204 20.9294C23.5204 19.7894 22.6004 18.8694 21.4604 18.8694Z" fill="#050150"/>
<path d="M26.6495 30.9507C26.2395 30.9507 25.8995 30.6107 25.8995 30.2007C25.8995 28.2807 23.9095 26.7207 21.4595 26.7207C19.0095 26.7207 17.0195 28.2807 17.0195 30.2007C17.0195 30.6107 16.6795 30.9507 16.2695 30.9507C15.8595 30.9507 15.5195 30.6107 15.5195 30.2007C15.5195 27.4607 18.1795 25.2207 21.4595 25.2207C24.7395 25.2207 27.3995 27.4507 27.3995 30.2007C27.3995 30.6107 27.0595 30.9507 26.6495 30.9507Z" fill="#050150"/>
<path d="M21.5 32.75C15.85 32.75 11.25 28.15 11.25 22.5C11.25 16.85 15.85 12.25 21.5 12.25C22.89 12.25 24.23 12.52 25.49 13.05C25.85 13.2 26.03 13.6 25.91 13.97C25.8 14.3 25.75 14.65 25.75 15C25.75 15.59 25.91 16.17 26.22 16.67C26.38 16.95 26.59 17.2 26.83 17.41C27.7 18.2 28.99 18.45 30 18.09C30.37 17.95 30.79 18.14 30.94 18.51C31.48 19.78 31.75 21.13 31.75 22.51C31.75 28.15 27.15 32.75 21.5 32.75ZM21.5 13.75C16.68 13.75 12.75 17.67 12.75 22.5C12.75 27.33 16.68 31.25 21.5 31.25C26.32 31.25 30.25 27.33 30.25 22.5C30.25 21.54 30.09 20.59 29.79 19.68C28.41 19.92 26.9 19.49 25.84 18.52C25.49 18.22 25.18 17.85 24.94 17.44C24.5 16.72 24.26 15.87 24.26 15C24.26 14.73 24.28 14.47 24.33 14.21C23.42 13.9 22.47 13.75 21.5 13.75Z" fill="#050150"/>
<path d="M29 19.75C27.82 19.75 26.7 19.31 25.83 18.52C25.48 18.22 25.17 17.85 24.93 17.44C24.49 16.72 24.25 15.87 24.25 15C24.25 14.49 24.33 13.99 24.49 13.51C24.71 12.83 25.09 12.2 25.6 11.69C26.5 10.77 27.71 10.25 29.01 10.25C30.37 10.25 31.66 10.83 32.54 11.83C33.32 12.7 33.76 13.82 33.76 15C33.76 15.38 33.71 15.76 33.61 16.12C33.51 16.57 33.32 17.04 33.06 17.45C32.48 18.43 31.56 19.16 30.48 19.5C30.03 19.67 29.53 19.75 29 19.75ZM29 11.75C28.11 11.75 27.28 12.1 26.67 12.73C26.32 13.09 26.07 13.5 25.92 13.97C25.81 14.3 25.76 14.65 25.76 15C25.76 15.59 25.92 16.17 26.23 16.67C26.39 16.95 26.6 17.2 26.84 17.41C27.71 18.2 29 18.45 30.01 18.09C30.77 17.85 31.39 17.35 31.79 16.68C31.97 16.39 32.09 16.08 32.16 15.77C32.23 15.51 32.26 15.26 32.26 15C32.26 14.2 31.96 13.43 31.42 12.83C30.81 12.14 29.93 11.75 29 11.75Z" fill="#050150"/>
<path d="M30.49 15.7305H27.5C27.09 15.7305 26.75 15.3905 26.75 14.9805C26.75 14.5705 27.09 14.2305 27.5 14.2305H30.49C30.9 14.2305 31.24 14.5705 31.24 14.9805C31.24 15.3905 30.91 15.7305 30.49 15.7305Z" fill="#050150"/>
<path d="M29 17.2595C28.59 17.2595 28.25 16.9195 28.25 16.5095V13.5195C28.25 13.1095 28.59 12.7695 29 12.7695C29.41 12.7695 29.75 13.1095 29.75 13.5195V16.5095C29.75 16.9295 29.41 17.2595 29 17.2595Z" fill="#050150"/>
</svg>
