<svg width="34" height="35" viewBox="0 0 34 35" fill="none" xmlns="http://www.w3.org/2000/svg">
<path d="M14.1601 16.6337C14.0601 16.6237 13.9401 16.6237 13.8301 16.6337C11.4501 16.5537 9.56006 14.6037 9.56006 12.2037C9.56006 9.75367 11.5401 7.76367 14.0001 7.76367C16.4501 7.76367 18.4401 9.75367 18.4401 12.2037C18.4301 14.6037 16.5401 16.5537 14.1601 16.6337Z" stroke="black" stroke-width="1.5" stroke-linecap="round" stroke-linejoin="round"/>
<path d="M21.4098 9.76367C23.3498 9.76367 24.9098 11.3337 24.9098 13.2637C24.9098 15.1537 23.4098 16.6937 21.5398 16.7637C21.4598 16.7537 21.3698 16.7537 21.2798 16.7637" stroke="black" stroke-width="1.5" stroke-linecap="round" stroke-linejoin="round"/>
<path d="M9.16021 20.3237C6.74021 21.9437 6.74021 24.5837 9.16021 26.1937C11.9102 28.0337 16.4202 28.0337 19.1702 26.1937C21.5902 24.5737 21.5902 21.9337 19.1702 20.3237C16.4302 18.4937 11.9202 18.4937 9.16021 20.3237Z" stroke="black" stroke-width="1.5" stroke-linecap="round" stroke-linejoin="round"/>
<path d="M23.3398 25.7637C24.0598 25.6137 24.7398 25.3237 25.2998 24.8937C26.8598 23.7237 26.8598 21.7937 25.2998 20.6237C24.7498 20.2037 24.0798 19.9237 23.3698 19.7637" stroke="black" stroke-width="1.5" stroke-linecap="round" stroke-linejoin="round"/>
</svg>
