<svg width="34" height="35" viewBox="0 0 34 35" fill="none" xmlns="http://www.w3.org/2000/svg">
<path d="M23.5 18.4141V22.1141C23.5 25.2341 20.59 27.7641 17 27.7641C13.41 27.7641 10.5 25.2341 10.5 22.1141V18.4141C10.5 21.5341 13.41 23.7641 17 23.7641C20.59 23.7641 23.5 21.5341 23.5 18.4141Z" stroke="black" stroke-width="1.5" stroke-linecap="round" stroke-linejoin="round"/>
<path d="M23.5 13.4137C23.5 14.3237 23.25 15.1637 22.81 15.8837C21.74 17.6437 19.54 18.7637 17 18.7637C14.46 18.7637 12.26 17.6437 11.19 15.8837C10.75 15.1637 10.5 14.3237 10.5 13.4137C10.5 11.8537 11.23 10.4437 12.4 9.42367C13.58 8.39367 15.2 7.76367 17 7.76367C18.8 7.76367 20.42 8.39367 21.6 9.41367C22.77 10.4437 23.5 11.8537 23.5 13.4137Z" stroke="black" stroke-width="1.5" stroke-linecap="round" stroke-linejoin="round"/>
<path d="M23.5 13.4137V18.4137C23.5 21.5337 20.59 23.7637 17 23.7637C13.41 23.7637 10.5 21.5337 10.5 18.4137V13.4137C10.5 10.2937 13.41 7.76367 17 7.76367C18.8 7.76367 20.42 8.39367 21.6 9.41367C22.77 10.4437 23.5 11.8537 23.5 13.4137Z" stroke="black" stroke-width="1.5" stroke-linecap="round" stroke-linejoin="round"/>
</svg>
