<svg width="64" height="64" viewBox="0 0 64 64" fill="none" xmlns="http://www.w3.org/2000/svg">
<rect width="64" height="64" rx="32" fill="#C2C2C2"/>
<path fill-rule="evenodd" clip-rule="evenodd" d="M33.6422 17.8133C34.4848 16.8026 36.1262 17.4933 35.9928 18.8026L35.0515 27.9999H42.6662C42.9195 28 43.1676 28.0723 43.3814 28.2083C43.5951 28.3443 43.7657 28.5384 43.8732 28.7678C43.9806 28.9972 44.0205 29.2525 43.988 29.5038C43.9556 29.7551 43.8523 29.9919 43.6902 30.1866L30.3568 46.1866C29.5142 47.1973 27.8728 46.5066 28.0062 45.1973L28.9475 35.9999H21.3328C21.0795 35.9998 20.8314 35.9275 20.6176 35.7916C20.4039 35.6556 20.2333 35.4615 20.1258 35.232C20.0184 35.0026 19.9785 34.7473 20.011 34.496C20.0434 34.2448 20.1467 34.0079 20.3088 33.8133L33.6422 17.8133Z" fill="#4D4D4D"/>
</svg>
