<svg width="82" height="82" viewBox="0 0 82 82" fill="none" xmlns="http://www.w3.org/2000/svg">
<rect width="82" height="82" rx="40" fill="#050150"/>
<path d="M33.5625 27.1875C31.2367 27.1875 29.0915 28.1013 27.5339 29.7864C25.9773 31.4715 25.0625 33.8664 25.0625 36.75C25.0625 39.1332 26.0772 41.5132 27.4829 43.6807C27.7025 44.0186 27.9316 44.3525 28.1703 44.6826L29.4134 44.1238C29.6249 44.0302 29.7936 43.8607 29.8863 43.6488L29.8884 43.6435L29.9447 43.5107C29.7096 43.1882 29.4832 42.8594 29.2657 42.5247C27.9663 40.5208 27.1875 38.5509 27.1875 36.75C27.1875 34.3211 27.9525 32.466 29.0947 31.2292C30.2369 29.9925 31.8094 29.3125 33.5625 29.3125C35.9 29.3125 37.4481 30.2369 38.4574 31.1591C38.9685 31.6266 39.3468 32.0984 39.6198 32.4681L39.8089 32.7274L39.8217 32.7454L39.9726 32.9526C40.0183 33.0142 40.0863 33.1035 40.1638 33.1842C40.1999 33.2236 40.2701 33.2926 40.3646 33.3585C40.4358 33.4084 40.6664 33.5625 41.0021 33.5625C41.3421 33.5625 41.5738 33.4052 41.6439 33.3564C41.7374 33.2894 41.8064 33.2204 41.8436 33.1811C41.918 33.1014 41.986 33.0121 42.0317 32.9516L42.1794 32.7476L42.1943 32.7263L42.3823 32.4671C42.7257 31.9941 43.1146 31.556 43.5436 31.1591C44.5519 30.2369 46.0989 29.3125 48.4375 29.3125C50.2852 29.3125 51.8513 29.9989 52.9638 31.2229C54.0815 32.4522 54.8125 34.3063 54.8125 36.75C54.8125 38.586 54.0316 40.5739 52.7332 42.581C51.4422 44.5764 49.6976 46.5037 47.9073 48.1963C46.3357 49.6767 44.6717 51.0557 42.9253 52.3252C42.2304 52.8288 41.6471 53.2219 41.2284 53.4854L41.0053 53.6236L40.779 53.4822C40.3604 53.2166 39.776 52.8193 39.0801 52.3103C38.0413 51.5476 37.0312 50.7467 36.0519 49.9091L35.1807 51.9544C36.0406 52.6714 36.9226 53.3617 37.8252 54.0241C38.5488 54.5554 39.1725 54.9804 39.64 55.2768C39.8716 55.4234 40.0756 55.5456 40.2393 55.6349C40.32 55.6784 40.4061 55.7231 40.4889 55.7592C40.5314 55.7783 40.5849 55.7985 40.6494 55.8197C40.6919 55.8325 40.8289 55.875 41.0021 55.875C41.1743 55.875 41.3103 55.8325 41.3528 55.8197C41.4165 55.7992 41.4696 55.7794 41.5121 55.7603C41.5964 55.7235 41.679 55.6831 41.7597 55.6391C41.9233 55.5509 42.1262 55.4309 42.3579 55.2853C42.8254 54.9921 43.4491 54.5713 44.1726 54.0454C45.9936 52.7221 47.7286 51.2845 49.3672 49.7412C51.2287 47.9806 53.1029 45.9236 54.5182 43.7349C55.9249 41.5589 56.9375 39.164 56.9375 36.75C56.9375 33.8812 56.0747 31.4853 54.5362 29.7928C52.9924 28.0949 50.8388 27.1875 48.4375 27.1875C45.4636 27.1875 43.4246 28.3881 42.1093 29.5909C41.7101 29.958 41.3396 30.3551 41.0011 30.7788C40.6618 30.355 40.2907 29.9579 39.8907 29.5909C38.5754 28.3881 36.5375 27.1875 33.5625 27.1875Z" fill="white"/>
<path d="M36.2209 45.0905C35.764 44.8886 35.4134 44.5168 35.2115 44.0599L33.7134 40.543C33.6519 40.4164 33.556 40.3097 33.4367 40.235C33.3173 40.1603 33.1794 40.1207 33.0387 40.1207C32.8979 40.1207 32.76 40.1603 32.6407 40.235C32.5214 40.3097 32.4255 40.4164 32.364 40.543L30.8659 44.0599C30.6746 44.5168 30.3134 44.878 29.8565 45.0905L27.9652 45.9405C27.8387 46.002 27.7319 46.0979 27.6572 46.2172C27.5826 46.3365 27.543 46.4744 27.543 46.6152C27.543 46.7559 27.5826 46.8939 27.6572 47.0132C27.7319 47.1325 27.8387 47.2284 27.9652 47.2899L29.8565 48.1399C30.3134 48.3418 30.664 48.7136 30.8659 49.1705L32.364 52.6874C32.6402 53.2505 33.4371 53.2505 33.7134 52.6874L35.2115 49.1705C35.4027 48.7136 35.764 48.3524 36.2209 48.1399L38.1121 47.2899C38.2387 47.2284 38.3455 47.1325 38.4201 47.0132C38.4948 46.8939 38.5344 46.7559 38.5344 46.6152C38.5344 46.4744 38.4948 46.3365 38.4201 46.2172C38.3455 46.0979 38.2387 46.002 38.1121 45.9405L36.2209 45.0905ZM50.1609 33.5518C50.2671 33.7961 50.4584 33.998 50.7027 34.1043L51.7227 34.5505C52.0309 34.6993 52.0309 35.1349 51.7227 35.2836L50.6921 35.7405C50.4477 35.8468 50.2565 36.0486 50.1502 36.293L49.3427 38.1949C49.194 38.4924 48.7584 38.4924 48.6096 38.1949L47.8021 36.293C47.6974 36.0473 47.5039 35.85 47.2602 35.7405L46.2296 35.2836C46.1603 35.2507 46.1018 35.1988 46.0608 35.1339C46.0198 35.069 45.998 34.9938 45.998 34.9171C45.998 34.8403 46.0198 34.7651 46.0608 34.7003C46.1018 34.6354 46.1603 34.5835 46.2296 34.5505L47.2602 34.0936C47.5046 33.9874 47.6959 33.7855 47.8021 33.5411L48.6202 31.6499C48.769 31.3524 49.2046 31.3524 49.3534 31.6499L50.1609 33.5518Z" fill="white"/>
</svg>
