<svg width="34" height="35" viewBox="0 0 34 35" fill="none" xmlns="http://www.w3.org/2000/svg">
<path d="M18.7299 9.2743L20.4899 12.7943C20.7299 13.2843 21.3699 13.7543 21.9099 13.8443L25.0999 14.3743C27.1399 14.7143 27.6199 16.1943 26.1499 17.6543L23.6699 20.1343C23.2499 20.5543 23.0199 21.3643 23.1499 21.9443L23.8599 25.0143C24.4199 27.4443 23.1299 28.3843 20.9799 27.1143L17.9899 25.3443C17.4499 25.0243 16.5599 25.0243 16.0099 25.3443L13.0199 27.1143C10.8799 28.3843 9.57991 27.4343 10.1399 25.0143L10.8499 21.9443C10.9799 21.3643 10.7499 20.5543 10.3299 20.1343L7.84991 17.6543C6.38991 16.1943 6.85991 14.7143 8.89991 14.3743L12.0899 13.8443C12.6199 13.7543 13.2599 13.2843 13.4999 12.7943L15.2599 9.2743C16.2199 7.3643 17.7799 7.3643 18.7299 9.2743Z" stroke="#4D4D4D" stroke-width="1.5" stroke-linecap="round" stroke-linejoin="round"/>
</svg>
