<svg width="82" height="82" viewBox="0 0 82 82" fill="none" xmlns="http://www.w3.org/2000/svg">
<rect width="82" height="82" rx="40" fill="#050150"/>
<path d="M53.7481 40.2917C53.7481 46.9421 48.3568 52.3333 41.7064 52.3333C40.181 52.3333 38.7218 52.0497 37.3787 51.5323C37.1332 51.4377 37.0104 51.3904 36.9127 51.3679C36.8167 51.3457 36.7472 51.3365 36.6487 51.3327C36.5486 51.3289 36.4387 51.3402 36.2191 51.3629L28.9643 52.1129C28.2726 52.1844 27.9268 52.2201 27.7227 52.0957C27.5451 51.9873 27.424 51.8062 27.3918 51.6006C27.3548 51.3645 27.5201 51.0586 27.8506 50.4468L30.1678 46.1578C30.3586 45.8046 30.454 45.628 30.4973 45.4582C30.5399 45.2905 30.5503 45.1695 30.5366 44.997C30.5228 44.8223 30.4461 44.595 30.2929 44.1402C29.8855 42.9318 29.6648 41.6375 29.6648 40.2917C29.6648 33.6412 35.056 28.25 41.7064 28.25C48.3568 28.25 53.7481 33.6412 53.7481 40.2917Z" stroke="white" stroke-width="1.4" stroke-linecap="round" stroke-linejoin="round"/>
</svg>
