<svg width="34" height="35" viewBox="0 0 34 35" fill="none" xmlns="http://www.w3.org/2000/svg">
<path d="M12.9998 27.7637H20.9998C25.0198 27.7637 25.7398 26.1537 25.9498 24.1937L26.6998 16.1937C26.9698 13.7537 26.2698 11.7637 21.9998 11.7637H11.9998C7.72983 11.7637 7.02983 13.7537 7.29983 16.1937L8.04983 24.1937C8.25983 26.1537 8.97983 27.7637 12.9998 27.7637Z" stroke="black" stroke-width="1.5" stroke-miterlimit="10" stroke-linecap="round" stroke-linejoin="round"/>
<path d="M13 11.7637V10.9637C13 9.19367 13 7.76367 16.2 7.76367H17.8C21 7.76367 21 9.19367 21 10.9637V11.7637" stroke="black" stroke-width="1.5" stroke-miterlimit="10" stroke-linecap="round" stroke-linejoin="round"/>
<path d="M19 18.7637V19.7637C19 19.7737 19 19.7737 19 19.7837C19 20.8737 18.99 21.7637 17 21.7637C15.02 21.7637 15 20.8837 15 19.7937V18.7637C15 17.7637 15 17.7637 16 17.7637H18C19 17.7637 19 17.7637 19 18.7637Z" stroke="black" stroke-width="1.5" stroke-miterlimit="10" stroke-linecap="round" stroke-linejoin="round"/>
<path d="M26.65 16.7637C24.34 18.4437 21.7 19.4437 19 19.7837" stroke="black" stroke-width="1.5" stroke-miterlimit="10" stroke-linecap="round" stroke-linejoin="round"/>
<path d="M7.62012 17.0332C9.87012 18.5732 12.4101 19.5032 15.0001 19.7932" stroke="black" stroke-width="1.5" stroke-miterlimit="10" stroke-linecap="round" stroke-linejoin="round"/>
</svg>
