<svg width="80" height="80" viewBox="0 0 80 80" fill="none" xmlns="http://www.w3.org/2000/svg">
<rect width="80" height="80" rx="40" fill="#050150"/>
<path d="M35.9993 28.6666V26.6666M30.7469 30.7475L29.3327 29.3333M30.7469 41.3333L29.3327 42.7475M41.3327 30.7475L42.7469 29.3333M28.666 36H26.666M45.152 45.5861L41.8297 51.756C41.4501 52.4609 41.2603 52.8133 41.032 52.9024C40.8339 52.9798 40.6107 52.958 40.4313 52.8436C40.2246 52.7119 40.1068 52.3294 39.8711 51.5643L35.2596 36.5936C35.0671 35.9686 34.9708 35.6561 35.0483 35.4451C35.1157 35.2612 35.2606 35.1164 35.4445 35.0489C35.6555 34.9714 35.968 35.0677 36.593 35.2602L51.5636 39.8718C52.3287 40.1074 52.7113 40.2253 52.843 40.432C52.9573 40.6114 52.9791 40.8345 52.9018 41.0327C52.8126 41.261 52.4602 41.4508 51.7553 41.8303L45.5854 45.1526C45.4807 45.209 45.4283 45.2372 45.3825 45.2734C45.3418 45.3056 45.305 45.3424 45.2728 45.3831C45.2366 45.4289 45.2084 45.4813 45.152 45.5861Z" stroke="white" stroke-width="1.4" stroke-linecap="round" stroke-linejoin="round"/>
</svg>
