<svg width="34" height="34" viewBox="0 0 34 34" fill="none" xmlns="http://www.w3.org/2000/svg">
<path d="M29.75 16.2917C29.75 22.9421 24.3588 28.3333 17.7084 28.3333C16.1829 28.3333 14.7237 28.0497 13.3807 27.5323C13.1351 27.4377 13.0123 27.3904 12.9147 27.3679C12.8187 27.3457 12.7492 27.3365 12.6507 27.3327C12.5505 27.3289 12.4407 27.3402 12.221 27.3629L4.96622 28.1129C4.27454 28.1844 3.92871 28.2201 3.7247 28.0957C3.54701 27.9873 3.42599 27.8062 3.39377 27.6006C3.35679 27.3645 3.52205 27.0586 3.85257 26.4468L6.16975 22.1578C6.36058 21.8046 6.456 21.628 6.49921 21.4582C6.54189 21.2905 6.55221 21.1695 6.53856 20.997C6.52474 20.8223 6.4481 20.595 6.29481 20.1402C5.88749 18.9318 5.6667 17.6375 5.6667 16.2917C5.6667 9.64124 11.0579 4.25 17.7084 4.25C24.3588 4.25 29.75 9.64124 29.75 16.2917Z" stroke="white" stroke-width="1.4" stroke-linecap="round" stroke-linejoin="round"/>
</svg>
