<svg width="34" height="34" viewBox="0 0 34 34" fill="none" xmlns="http://www.w3.org/2000/svg">
<path d="M23.375 10.625C23.375 12.3158 22.7034 13.9373 21.5078 15.1328C20.3123 16.3284 18.6908 17 17 17C15.3092 17 13.6877 16.3284 12.4922 15.1328C11.2966 13.9373 10.625 12.3158 10.625 10.625C10.625 8.93425 11.2966 7.31274 12.4922 6.11719C13.6877 4.92165 15.3092 4.25 17 4.25C18.6908 4.25 20.3123 4.92165 21.5078 6.11719C22.7034 7.31274 23.375 8.93425 23.375 10.625ZM17 14.875C18.1272 14.875 19.2082 14.4272 20.0052 13.6302C20.8022 12.8332 21.25 11.7522 21.25 10.625C21.25 9.49783 20.8022 8.41683 20.0052 7.6198C19.2082 6.82277 18.1272 6.375 17 6.375C15.8728 6.375 14.7918 6.82277 13.9948 7.6198C13.1978 8.41683 12.75 9.49783 12.75 10.625C12.75 11.7522 13.1978 12.8332 13.9948 13.6302C14.7918 14.4272 15.8728 14.875 17 14.875ZM17.544 29.75C17.3007 29.0598 17.1374 28.3439 17.0574 27.6165H6.375C6.37713 27.0938 6.70225 25.5212 8.143 24.0805C9.5285 22.695 12.1359 21.25 17 21.25C17.5525 21.25 18.0767 21.2677 18.5725 21.3031C19.0527 20.5785 19.6265 19.9219 20.281 19.3524C19.2893 19.2036 18.1957 19.1278 17 19.125C6.375 19.125 4.25 25.5 4.25 27.625C4.25 29.75 6.375 29.75 6.375 29.75H17.544ZM25.2577 20.1025C25.6402 18.7999 27.4847 18.7999 27.8694 20.1025L27.9608 20.417C28.0178 20.6121 28.1179 20.7919 28.2536 20.9432C28.3893 21.0945 28.5572 21.2135 28.745 21.2914C28.9328 21.3692 29.1356 21.404 29.3385 21.3932C29.5415 21.3824 29.7395 21.3262 29.9179 21.2288L30.2069 21.0715C31.399 20.4213 32.7038 21.726 32.0556 22.9181L31.8962 23.2071C31.7992 23.3854 31.7434 23.5832 31.7327 23.7859C31.7221 23.9886 31.757 24.1912 31.8348 24.3787C31.9127 24.5661 32.0315 24.7338 32.1826 24.8694C32.3337 25.005 32.5132 25.105 32.708 25.1621L33.0246 25.2577C34.3251 25.6402 34.3251 27.4847 33.0246 27.8694L32.7059 27.9608C32.5112 28.0183 32.3318 28.1187 32.181 28.2547C32.0301 28.3906 31.9116 28.5586 31.8342 28.7463C31.7568 28.9339 31.7223 29.1366 31.7334 29.3393C31.7445 29.5421 31.8009 29.7398 31.8984 29.9179L32.0556 30.2069C32.7038 31.399 31.399 32.7038 30.2069 32.0556L29.9179 31.8962C29.7396 31.7992 29.5418 31.7434 29.3391 31.7327C29.1364 31.7221 28.9338 31.757 28.7463 31.8348C28.5589 31.9127 28.3912 32.0315 28.2556 32.1826C28.12 32.3337 28.02 32.5132 27.9629 32.708L27.8673 33.0246C27.4848 34.3251 25.6403 34.3251 25.2556 33.0246L25.1642 32.7059C25.1067 32.5112 25.0063 32.3318 24.8703 32.181C24.7344 32.0301 24.5664 31.9116 24.3787 31.8342C24.1911 31.7568 23.9884 31.7223 23.7857 31.7334C23.5829 31.7445 23.3852 31.8009 23.2071 31.8984L22.9181 32.0556C21.726 32.7038 20.4212 31.399 21.0694 30.2069L21.2288 29.9179C21.3258 29.7396 21.3816 29.5418 21.3923 29.3391C21.4029 29.1364 21.368 28.9338 21.2902 28.7463C21.2123 28.5589 21.0935 28.3912 20.9424 28.2556C20.7913 28.12 20.6118 28.02 20.417 27.9629L20.1025 27.8673C18.7999 27.4848 18.7999 25.6403 20.1025 25.2556L20.417 25.1642C20.6121 25.1072 20.7919 25.0071 20.9432 24.8714C21.0945 24.7357 21.2135 24.5678 21.2914 24.38C21.3692 24.1922 21.404 23.9894 21.3932 23.7865C21.3824 23.5835 21.3262 23.3855 21.2288 23.2071L21.0715 22.9181C20.4213 21.726 21.726 20.4212 22.9181 21.0694L23.2071 21.2288C23.3854 21.3258 23.5832 21.3816 23.7859 21.3923C23.9886 21.4029 24.1912 21.368 24.3787 21.2902C24.5661 21.2123 24.7338 21.0935 24.8694 20.9424C25.005 20.7913 25.105 20.6118 25.1621 20.417L25.2577 20.1025ZM29.75 26.5625C29.75 26.1439 29.6676 25.7294 29.5074 25.3427C29.3472 24.956 29.1124 24.6046 28.8164 24.3086C28.5204 24.0126 28.169 23.7778 27.7823 23.6176C27.3956 23.4574 26.9811 23.375 26.5625 23.375C26.1439 23.375 25.7294 23.4574 25.3427 23.6176C24.956 23.7778 24.6046 24.0126 24.3086 24.3086C24.0126 24.6046 23.7778 24.956 23.6176 25.3427C23.4574 25.7294 23.375 26.1439 23.375 26.5625C23.375 27.4079 23.7108 28.2186 24.3086 28.8164C24.9064 29.4142 25.7171 29.75 26.5625 29.75C27.4079 29.75 28.2186 29.4142 28.8164 28.8164C29.4142 28.2186 29.75 27.4079 29.75 26.5625Z" fill="#FDFDFD"/>
</svg>
