<svg width="375" height="44" viewBox="0 0 375 44" fill="none" xmlns="http://www.w3.org/2000/svg">
<path opacity="0.35" d="M334.669 17.833H351.335C352.532 17.833 353.502 18.8034 353.502 20V26C353.502 27.1965 352.531 28.166 351.335 28.166H334.669C333.472 28.166 332.502 27.1965 332.502 26V20L332.513 19.7783C332.624 18.6857 333.547 17.833 334.669 17.833Z" stroke="black"/>
<path opacity="0.4" d="M355.002 20.9995V24.9995C355.807 24.6607 356.33 23.8726 356.33 22.9995C356.33 22.1264 355.807 21.3383 355.002 20.9995Z" fill="black"/>
<path d="M334.002 20.433C334.002 19.8255 334.494 19.333 335.102 19.333H350.902C351.509 19.333 352.002 19.8255 352.002 20.433V25.5663C352.002 26.1739 351.509 26.6663 350.902 26.6663H335.102C334.494 26.6663 334.002 26.1739 334.002 25.5663V20.433Z" fill="black"/>
<path fill-rule="evenodd" clip-rule="evenodd" d="M319.332 19.6079C321.548 19.608 323.679 20.4594 325.285 21.9862C325.406 22.1041 325.599 22.1026 325.718 21.9829L326.874 20.8162C326.935 20.7555 326.968 20.6733 326.968 20.5877C326.967 20.5021 326.933 20.4202 326.872 20.3602C322.656 16.3207 316.007 16.3207 311.792 20.3602C311.731 20.4202 311.696 20.502 311.695 20.5876C311.695 20.6732 311.728 20.7555 311.789 20.8162L312.945 21.9829C313.064 22.1028 313.257 22.1043 313.378 21.9862C314.984 20.4593 317.116 19.6079 319.332 19.6079ZM319.332 23.4036C320.549 23.4035 321.723 23.856 322.626 24.6732C322.748 24.7892 322.94 24.7867 323.059 24.6676L324.214 23.5009C324.275 23.4397 324.308 23.3567 324.308 23.2704C324.307 23.1842 324.271 23.1018 324.209 23.0419C321.461 20.4855 317.205 20.4855 314.457 23.0419C314.395 23.1018 314.359 23.1842 314.359 23.2705C314.358 23.3568 314.392 23.4398 314.453 23.5009L315.607 24.6676C315.726 24.7867 315.918 24.7892 316.04 24.6732C316.942 23.8566 318.115 23.4041 319.332 23.4036ZM321.645 25.9574C321.647 26.0439 321.613 26.1273 321.551 26.1879L319.554 28.2036C319.495 28.2628 319.415 28.2961 319.332 28.2961C319.249 28.2961 319.169 28.2628 319.11 28.2036L317.113 26.1879C317.051 26.1272 317.017 26.0438 317.019 25.9573C317.021 25.8708 317.058 25.7889 317.122 25.7309C318.398 24.652 320.266 24.652 321.542 25.7309C321.606 25.7889 321.643 25.8709 321.645 25.9574Z" fill="black"/>
<path fill-rule="evenodd" clip-rule="evenodd" d="M305.668 17.6665H304.668C304.116 17.6665 303.668 18.1142 303.668 18.6665V27.3332C303.668 27.8855 304.116 28.3332 304.668 28.3332H305.668C306.22 28.3332 306.668 27.8855 306.668 27.3332V18.6665C306.668 18.1142 306.22 17.6665 305.668 17.6665ZM300.001 19.9998H301.001C301.554 19.9998 302.001 20.4476 302.001 20.9998V27.3332C302.001 27.8855 301.554 28.3332 301.001 28.3332H300.001C299.449 28.3332 299.001 27.8855 299.001 27.3332V20.9998C299.001 20.4476 299.449 19.9998 300.001 19.9998ZM296.335 22.3332H295.335C294.782 22.3332 294.335 22.7809 294.335 23.3332V27.3332C294.335 27.8855 294.782 28.3332 295.335 28.3332H296.335C296.887 28.3332 297.335 27.8855 297.335 27.3332V23.3332C297.335 22.7809 296.887 22.3332 296.335 22.3332ZM291.668 24.3332H290.668C290.116 24.3332 289.668 24.7809 289.668 25.3332V27.3332C289.668 27.8855 290.116 28.3332 290.668 28.3332H291.668C292.22 28.3332 292.668 27.8855 292.668 27.3332V25.3332C292.668 24.7809 292.22 24.3332 291.668 24.3332Z" fill="black"/>
<path d="M40.4341 28.2563C39.4673 28.2563 38.6445 27.9951 37.9658 27.4727C37.2871 26.9453 36.8696 26.2471 36.7134 25.3779H38.5957C38.7178 25.7783 38.9424 26.0957 39.2695 26.3301C39.6016 26.5596 39.9946 26.6743 40.4487 26.6743C41.2202 26.6743 41.8232 26.335 42.2578 25.6562C42.6924 24.9727 42.9097 24.0254 42.9097 22.8145H42.8438H42.8071H42.7852C42.5361 23.3174 42.1724 23.708 41.6938 23.9863C41.2153 24.2598 40.666 24.3965 40.0459 24.3965C39.04 24.3965 38.2075 24.0645 37.5483 23.4004C36.894 22.7363 36.5669 21.8965 36.5669 20.8809C36.5669 19.7969 36.9331 18.9082 37.6655 18.2148C38.4028 17.5166 39.3452 17.1675 40.4927 17.1675C41.2642 17.1675 41.9478 17.3457 42.5435 17.7021C43.1392 18.0586 43.6152 18.5762 43.9717 19.2549C44.4697 20.1387 44.7188 21.252 44.7188 22.5947C44.7188 24.3721 44.3403 25.7612 43.5835 26.7622C42.8267 27.7583 41.7769 28.2563 40.4341 28.2563ZM39.0059 22.3164C39.3965 22.7021 39.8945 22.895 40.5 22.895C41.1055 22.895 41.606 22.7021 42.0015 22.3164C42.397 21.9307 42.5947 21.4424 42.5947 20.8516C42.5947 20.2559 42.3945 19.7554 41.9941 19.3501C41.5938 18.9448 41.0981 18.7422 40.5073 18.7422C39.9165 18.7422 39.4209 18.9424 39.0205 19.3428C38.6201 19.7383 38.4199 20.2314 38.4199 20.8223C38.4199 21.4277 38.6152 21.9258 39.0059 22.3164ZM47.5366 26.8794C47.1948 26.8794 46.9141 26.7695 46.6943 26.5498C46.4746 26.3301 46.3647 26.0542 46.3647 25.7222C46.3647 25.3853 46.4746 25.1094 46.6943 24.8945C46.9141 24.6748 47.1948 24.5649 47.5366 24.5649C47.8833 24.5649 48.1641 24.6748 48.3789 24.8945C48.5986 25.1094 48.7085 25.3853 48.7085 25.7222C48.7085 26.0542 48.5986 26.3301 48.3789 26.5498C48.1641 26.7695 47.8833 26.8794 47.5366 26.8794ZM47.5366 21.3862C47.1948 21.3862 46.9141 21.2788 46.6943 21.064C46.4746 20.8442 46.3647 20.5684 46.3647 20.2363C46.3647 19.8994 46.4746 19.6235 46.6943 19.4087C46.9141 19.189 47.1948 19.0791 47.5366 19.0791C47.8833 19.0791 48.1641 19.189 48.3789 19.4087C48.5986 19.6235 48.7085 19.8994 48.7085 20.2363C48.7085 20.5684 48.5986 20.8442 48.3789 21.064C48.1641 21.2788 47.8833 21.3862 47.5366 21.3862ZM55.5107 28V26.0298H50.3472V24.3452C51.2065 22.7632 52.6421 20.4585 54.6538 17.4312H57.3198V24.4331H58.748V26.0298H57.3198V28H55.5107ZM52.0977 24.3672V24.4771H55.54V18.9692H55.4375C54.2949 20.6587 53.1816 22.458 52.0977 24.3672ZM62.5767 28V19.3354H62.4521L59.8228 21.1812V19.3647L62.584 17.4312H64.4663V28H62.5767Z" fill="black"/>
</svg>
