<svg width="29" height="29" viewBox="0 0 29 29" fill="none" xmlns="http://www.w3.org/2000/svg">
<path d="M19.5158 27.2891H4.31556C3.21661 27.2891 2.19864 26.7802 1.53927 25.8895C0.868336 24.9872 0.671691 23.8534 1.00716 22.7776L5.87724 7.12622C6.31682 5.66866 7.65871 4.67383 9.18567 4.67383H23.4142C24.8139 4.67383 26.0748 5.50682 26.6069 6.80242C26.8961 7.47336 26.954 8.23686 26.7804 8.98877L22.8821 24.64C22.5119 26.2017 21.1237 27.2891 19.5158 27.2891ZM9.19722 6.42059C8.4453 6.42059 7.76281 6.91808 7.54302 7.64686L2.67294 23.2983C2.51099 23.8419 2.60352 24.4088 2.95056 24.8715C3.27446 25.3111 3.78345 25.5655 4.32714 25.5655H19.5274C20.3256 25.5655 21.0196 25.0218 21.2047 24.2468L25.1031 8.58378C25.1956 8.20204 25.1725 7.82036 25.0221 7.48489C24.7445 6.82552 24.1314 6.40901 23.4258 6.40901H9.19722V6.42059Z" fill="#4D4D4D"/>
<path d="M24.606 27.2889H19.0766C18.6023 27.2889 18.209 26.8956 18.209 26.4213C18.209 25.947 18.6023 25.5537 19.0766 25.5537H24.606C25.0803 25.5537 25.5199 25.3571 25.8438 25.01C26.1677 24.663 26.3296 24.2003 26.2949 23.726L25.1497 7.97053C25.115 7.49624 25.4736 7.07974 25.9479 7.04504C26.4222 7.0219 26.8386 7.36887 26.8733 7.84315L28.0186 23.5988C28.088 24.5473 27.7525 25.4959 27.1047 26.19C26.4685 26.8956 25.5546 27.2889 24.606 27.2889Z" fill="#4D4D4D"/>
<path d="M11.7655 9.21932C11.696 9.21932 11.6266 9.20773 11.5572 9.19616C11.0945 9.08048 10.8053 8.61772 10.921 8.14344L12.1241 3.14617C12.2397 2.68345 12.7025 2.3942 13.1767 2.50988C13.6395 2.62556 13.9287 3.08831 13.813 3.5626L12.6099 8.56001C12.5174 8.95332 12.1588 9.21932 11.7655 9.21932Z" fill="#4D4D4D"/>
<path d="M19.5153 9.23096C19.4575 9.23096 19.3881 9.23093 19.3302 9.2078C18.8675 9.10369 18.5668 8.64095 18.6593 8.17824L19.7467 3.15781C19.8508 2.68353 20.3135 2.39438 20.7762 2.48692C21.2389 2.57947 21.5397 3.05363 21.4471 3.51634L20.3598 8.53691C20.2788 8.95335 19.9202 9.23096 19.5153 9.23096Z" fill="#4D4D4D"/>
<path d="M18.7293 15.721H9.47501C9.00073 15.721 8.60742 15.3277 8.60742 14.8534C8.60742 14.3791 9.00073 13.9858 9.47501 13.9858H18.7293C19.2036 13.9858 19.5969 14.3791 19.5969 14.8534C19.5969 15.3277 19.2036 15.721 18.7293 15.721Z" fill="#4D4D4D"/>
<path d="M17.5731 20.348H8.31876C7.84448 20.348 7.45117 19.9547 7.45117 19.4804C7.45117 19.0061 7.84448 18.6128 8.31876 18.6128H17.5731C18.0474 18.6128 18.4407 19.0061 18.4407 19.4804C18.4407 19.9547 18.0474 20.348 17.5731 20.348Z" fill="black"/>
</svg>
