<svg width="27" height="26" viewBox="0 0 27 26" fill="none" xmlns="http://www.w3.org/2000/svg">
<path d="M13.3071 16.271C15.0624 16.271 16.4854 14.8481 16.4854 13.0928C16.4854 11.3375 15.0624 9.91455 13.3071 9.91455C11.5518 9.91455 10.1289 11.3375 10.1289 13.0928C10.1289 14.8481 11.5518 16.271 13.3071 16.271Z" stroke="black" stroke-width="1.58911" stroke-miterlimit="10" stroke-linecap="round" stroke-linejoin="round"/>
<path d="M2.71289 14.0252V12.1606C2.71289 11.0588 3.61339 10.1478 4.72577 10.1478C6.64329 10.1478 7.42725 8.79171 6.46319 7.12844C5.9123 6.17497 6.24072 4.93547 7.20478 4.38457L9.03755 3.33576C9.87449 2.83784 10.9551 3.13447 11.453 3.97141L11.5695 4.17269C12.523 5.83596 14.0909 5.83596 15.055 4.17269L15.1715 3.97141C15.6694 3.13447 16.75 2.83784 17.587 3.33576L19.4197 4.38457C20.3838 4.93547 20.7122 6.17497 20.1613 7.12844C19.1973 8.79171 19.9812 10.1478 21.8988 10.1478C23.0005 10.1478 23.9116 11.0482 23.9116 12.1606V14.0252C23.9116 15.127 23.0111 16.0381 21.8988 16.0381C19.9812 16.0381 19.1973 17.3941 20.1613 19.0574C20.7122 20.0214 20.3838 21.2503 19.4197 21.8012L17.587 22.85C16.75 23.348 15.6694 23.0513 15.1715 22.2144L15.055 22.0131C14.1015 20.3498 12.5336 20.3498 11.5695 22.0131L11.453 22.2144C10.9551 23.0513 9.87449 23.348 9.03755 22.85L7.20478 21.8012C6.24072 21.2503 5.9123 20.0108 6.46319 19.0574C7.42725 17.3941 6.64329 16.0381 4.72577 16.0381C3.61339 16.0381 2.71289 15.127 2.71289 14.0252Z" stroke="black" stroke-width="1.58911" stroke-miterlimit="10" stroke-linecap="round" stroke-linejoin="round"/>
</svg>
