<svg width="32" height="32" viewBox="0 0 32 32" fill="none" xmlns="http://www.w3.org/2000/svg">
<path fill-rule="evenodd" clip-rule="evenodd" d="M6.66732 1.33301C5.25283 1.33301 3.89628 1.89491 2.89608 2.89511C1.89589 3.8953 1.33398 5.25185 1.33398 6.66634V25.333C1.33398 26.7475 1.89589 28.104 2.89608 29.1042C3.89628 30.1044 5.25283 30.6663 6.66732 30.6663H25.334C26.7485 30.6663 28.105 30.1044 29.1052 29.1042C30.1054 28.104 30.6673 26.7475 30.6673 25.333V6.66634C30.6673 5.25185 30.1054 3.8953 29.1052 2.89511C28.105 1.89491 26.7485 1.33301 25.334 1.33301H6.66732ZM6.22198 5.99967C6.07603 6.05392 5.94475 6.1415 5.83862 6.25543C5.73248 6.36937 5.65442 6.50652 5.61066 6.65595C5.56689 6.80539 5.55862 6.96298 5.58651 7.11617C5.61441 7.26936 5.67769 7.41392 5.77132 7.53834L13.2567 17.4717L5.36998 25.9317L5.31132 25.9997H8.04065L14.4807 19.0943L19.43 25.665C19.5448 25.8171 19.7007 25.9332 19.8793 25.9997H25.7753C25.9211 25.9451 26.0521 25.8574 26.1579 25.7433C26.2637 25.6292 26.3415 25.492 26.385 25.3426C26.4285 25.1932 26.4365 25.0357 26.4085 24.8827C26.3804 24.7296 26.317 24.5853 26.2233 24.461L18.738 14.5277L26.69 5.99967H23.9566L17.5167 12.9063L12.5647 6.33567C12.45 6.18309 12.2941 6.0665 12.1153 5.99967H6.22198ZM20.7287 24.0637L8.57532 7.93567H11.2673L23.4193 24.0623L20.7287 24.0637Z" fill="#0D99FF"/>
</svg>
