<svg width="44" height="44" viewBox="0 0 44 44" fill="none" xmlns="http://www.w3.org/2000/svg">
<rect x="0.05" y="0.05" width="43.9" height="43.9" rx="19.95" stroke="black" stroke-width="0.1"/>
<path d="M30.9098 21.1203V16.7303C30.9098 15.9103 30.2898 14.9803 29.5198 14.6703L23.9498 12.3903C22.6998 11.8803 21.2898 11.8803 20.0398 12.3903L14.4698 14.6703C13.7098 14.9803 13.0898 15.9103 13.0898 16.7303V21.1203C13.0898 26.0103 16.6398 30.5903 21.4898 31.9303C21.8198 32.0203 22.1798 32.0203 22.5098 31.9303C27.3598 30.5903 30.9098 26.0103 30.9098 21.1203ZM22.7498 22.8703V25.5003C22.7498 25.9103 22.4098 26.2503 21.9998 26.2503C21.5898 26.2503 21.2498 25.9103 21.2498 25.5003V22.8703C20.2398 22.5503 19.4998 21.6103 19.4998 20.5003C19.4998 19.1203 20.6198 18.0003 21.9998 18.0003C23.3798 18.0003 24.4998 19.1203 24.4998 20.5003C24.4998 21.6203 23.7598 22.5503 22.7498 22.8703Z" fill="black"/>
</svg>
