<svg width="121" height="120" viewBox="0 0 121 120" fill="none" xmlns="http://www.w3.org/2000/svg">
<path opacity="0.4" d="M60.5 110C88.1142 110 110.5 87.6142 110.5 60C110.5 32.3858 88.1142 10 60.5 10C32.8858 10 10.5 32.3858 10.5 60C10.5 87.6142 32.8858 110 60.5 110Z" fill="#28A745"/>
<path d="M53.3992 77.9C52.3992 77.9 51.4492 77.5 50.7492 76.8L36.5992 62.65C35.1492 61.2 35.1492 58.8 36.5992 57.35C38.0492 55.9 40.4492 55.9 41.8992 57.35L53.3992 68.85L79.0992 43.15C80.5492 41.7 82.9492 41.7 84.3992 43.15C85.8492 44.6 85.8492 47 84.3992 48.45L56.0492 76.8C55.3492 77.5 54.3992 77.9 53.3992 77.9Z" fill="#28A745"/>
</svg>
