<svg width="200" height="200" viewBox="0 0 200 200" fill="none" xmlns="http://www.w3.org/2000/svg">
<path d="M144.918 130.583L111.251 100H88.6676L55.001 130.583C45.5843 139.083 42.501 152.167 47.0843 164C51.6676 175.75 62.8343 183.333 75.4176 183.333H124.501C137.168 183.333 148.251 175.75 152.834 164C157.418 152.167 154.334 139.083 144.918 130.583ZM115.168 151.167H84.8343C81.6676 151.167 79.1676 148.583 79.1676 145.5C79.1676 142.417 81.751 139.833 84.8343 139.833H115.168C118.334 139.833 120.834 142.417 120.834 145.5C120.834 148.583 118.251 151.167 115.168 151.167Z" fill="#1E1A62"/>
<path d="M152.917 35.9994C148.334 24.2494 137.167 16.666 124.584 16.666H75.4169C62.8335 16.666 51.6669 24.2494 47.0835 35.9994C42.5835 47.8327 45.6669 60.916 55.0835 69.416L88.7502 99.9994H111.334L145 69.416C154.334 60.916 157.417 47.8327 152.917 35.9994ZM115.167 60.2494H84.8335C81.6669 60.2494 79.1669 57.666 79.1669 54.5827C79.1669 51.4994 81.7502 48.916 84.8335 48.916H115.167C118.334 48.916 120.834 51.4994 120.834 54.5827C120.834 57.666 118.25 60.2494 115.167 60.2494Z" fill="#1E1A62"/>
</svg>
