<svg width="32" height="32" viewBox="0 0 32 32" fill="none" xmlns="http://www.w3.org/2000/svg">
<path d="M20.3865 11.8001L14.0798 18.1201L11.6132 15.6401C11.3621 15.389 11.0216 15.248 10.6665 15.248C10.3114 15.248 9.97089 15.389 9.71982 15.6401C9.46875 15.8912 9.3277 16.2317 9.3277 16.5867C9.3277 16.7626 9.36233 16.9367 9.42961 17.0991C9.49689 17.2615 9.5955 17.4091 9.71982 17.5334L13.1332 20.9467C13.2571 21.0717 13.4046 21.1709 13.5671 21.2386C13.7295 21.3063 13.9038 21.3411 14.0798 21.3411C14.2558 21.3411 14.4301 21.3063 14.5926 21.2386C14.7551 21.1709 14.9025 21.0717 15.0265 20.9467L22.2798 13.6934C22.4041 13.5691 22.5028 13.4215 22.57 13.2591C22.6373 13.0967 22.6719 12.9226 22.6719 12.7467C22.6719 12.5709 22.6373 12.3968 22.57 12.2344C22.5028 12.072 22.4041 11.9244 22.2798 11.8001C22.1555 11.6758 22.0079 11.5771 21.8455 11.5099C21.6831 11.4426 21.509 11.408 21.3332 11.408C21.1573 11.408 20.9833 11.4426 20.8208 11.5099C20.6584 11.5771 20.5108 11.6758 20.3865 11.8001ZM15.9998 2.66675C14.2489 2.66675 12.515 3.01162 10.8974 3.68169C9.2797 4.35175 7.80984 5.33388 6.57173 6.57199C4.07125 9.07248 2.66649 12.4639 2.66649 16.0001C2.65596 19.0787 3.72187 22.0642 5.67982 24.4401L3.01315 27.1067C2.82814 27.2942 2.70282 27.5323 2.65298 27.791C2.60315 28.0496 2.63105 28.3173 2.73315 28.5601C2.8439 28.8 3.02343 29.0016 3.24895 29.1393C3.47447 29.277 3.73582 29.3445 3.99982 29.3334H15.9998C19.536 29.3334 22.9274 27.9287 25.4279 25.4282C27.9284 22.9277 29.3332 19.5363 29.3332 16.0001C29.3332 12.4639 27.9284 9.07248 25.4279 6.57199C22.9274 4.07151 19.536 2.66675 15.9998 2.66675ZM15.9998 26.6667H7.21315L8.45315 25.4267C8.70149 25.1769 8.84088 24.839 8.84088 24.4867C8.84088 24.1345 8.70149 23.7966 8.45315 23.5467C6.70727 21.8028 5.62005 19.5075 5.37674 17.0518C5.13343 14.5961 5.74908 12.1321 7.11879 10.0794C8.4885 8.0268 10.5275 6.51256 12.8885 5.79471C15.2495 5.07686 17.7863 5.19982 20.0668 6.14263C22.3473 7.08544 24.2303 8.78978 25.3951 10.9653C26.5599 13.1408 26.9343 15.6528 26.4547 18.0734C25.975 20.494 24.6709 22.6735 22.7645 24.2404C20.8582 25.8073 18.4675 26.6648 15.9998 26.6667Z" fill="#4D4D4D"/>
</svg>
