<svg width="24" height="32" viewBox="0 0 24 32" fill="none" xmlns="http://www.w3.org/2000/svg">
<path d="M22.5423 9.95838L14.209 1.62504C14.1673 1.58338 14.1257 1.58337 14.1257 1.54171C13.8757 1.29171 13.5423 1.08337 13.209 0.916708C13.1673 0.916708 13.1673 0.916708 13.1257 0.916708C12.7923 0.791708 12.459 0.750041 12.1257 0.708374C12.0007 0.708374 11.9173 0.708374 11.7923 0.708374C11.5423 0.708374 11.2507 0.791707 11.0007 0.875041C10.8757 0.916707 10.7923 0.958373 10.709 1.00004C10.3756 1.16671 10.0423 1.33338 9.79232 1.62504L1.45898 9.95838C0.250651 11.1667 0.250651 13.1667 1.45898 14.375C2.66732 15.5834 4.66732 15.5834 5.87565 14.375L8.87565 11.375V28.8334C8.87565 30.5417 10.2923 31.9584 12.0007 31.9584C13.709 31.9584 15.1257 30.5417 15.1257 28.8334V11.375L18.1257 14.375C18.7507 15 19.5423 15.2917 20.334 15.2917C21.1257 15.2917 21.9173 15 22.5423 14.375C23.7507 13.1667 23.7507 11.1667 22.5423 9.95838Z" fill="#050150"/>
</svg>
