<svg width="18" height="21" viewBox="0 0 18 21" fill="none" xmlns="http://www.w3.org/2000/svg">
<path d="M10.0642 5.18494L10.8092 4.87894C11.4142 4.63894 12.1962 4.39394 13.1192 4.54894C15.0102 4.86694 16.3142 5.88794 17.0912 7.24194C17.3912 7.76394 17.1492 8.45194 16.5892 8.67094C16.1095 8.85861 15.6994 9.18985 15.415 9.61938C15.1306 10.0489 14.9858 10.5558 15.0003 11.0707C15.0149 11.5857 15.1881 12.0836 15.4963 12.4963C15.8045 12.9091 16.2326 13.2167 16.7222 13.3769C17.2402 13.5469 17.5322 14.1219 17.3622 14.6399C16.9202 15.9819 16.2842 17.2209 15.5312 18.2209C14.7872 19.2089 13.8792 20.0289 12.8682 20.4299C12.2082 20.6899 11.5002 20.5929 10.8232 20.4249L10.4212 20.3179L9.82421 20.1449C9.55321 20.0659 9.27421 19.9979 9.00021 19.9979C8.72521 19.9979 8.4472 20.0659 8.1762 20.1449L7.57921 20.3179L7.17721 20.4249C6.50021 20.5929 5.7912 20.6909 5.13221 20.4299C3.85921 19.9259 2.7362 18.7499 1.88721 17.3629C0.969203 15.835 0.362873 14.1404 0.103205 12.3769C-0.123795 10.8229 -0.000795186 9.07794 0.718205 7.60194C1.4582 6.08094 2.81421 4.89694 4.88121 4.54894C5.72121 4.40794 6.4432 4.59694 7.0212 4.81394L7.35221 4.94394L7.9362 5.18494C8.3362 5.34194 8.65121 5.43394 9.00021 5.43394C9.34821 5.43394 9.66421 5.34194 10.0642 5.18494ZM8.7682 1.26794C9.7442 0.290943 11.2432 0.206943 11.5962 0.560943C11.9502 0.913943 11.8662 2.41294 10.8892 3.38894C9.9132 4.36494 8.4142 4.44894 8.0612 4.09594C7.7072 3.74294 7.7912 2.24394 8.7682 1.26794Z" fill="#050150"/>
</svg>
