<svg width="20" height="21" viewBox="0 0 20 21" fill="none" xmlns="http://www.w3.org/2000/svg">
<path d="M4 10.5C3.99856 11.9165 4.49829 13.2877 5.41074 14.3712C6.32318 15.4546 7.58951 16.1802 8.98557 16.4197C10.3816 16.6592 11.8174 16.397 13.0388 15.6797C14.2601 14.9623 15.1883 13.836 15.659 12.5H10V8.5H19.805V12.5H19.8C18.873 17.064 14.838 20.5 10 20.5C4.477 20.5 0 16.023 0 10.5C0 4.977 4.477 0.500003 10 0.500003C11.6345 0.498838 13.2444 0.898752 14.6883 1.66467C16.1323 2.43058 17.3662 3.5391 18.282 4.893L15.004 7.188C14.2924 6.11241 13.2532 5.29473 12.0404 4.85617C10.8275 4.4176 9.50569 4.38149 8.27074 4.75319C7.03579 5.12488 5.95347 5.88461 5.18421 6.91974C4.41495 7.95487 3.9997 9.21033 4 10.5Z" fill="#050150"/>
</svg>
