<svg width="40" height="40" viewBox="0 0 40 40" fill="none" xmlns="http://www.w3.org/2000/svg">
<path fill-rule="evenodd" clip-rule="evenodd" d="M25.6972 9.4051C25.4673 9.03783 25.1287 8.75136 24.7284 8.58556C24.3281 8.41977 23.8861 8.3829 23.4638 8.4801L20.4672 9.16843C20.1601 9.23902 19.8409 9.23902 19.5338 9.16843L16.5372 8.4801C16.1149 8.3829 15.6729 8.41977 15.2726 8.58556C14.8723 8.75136 14.5337 9.03783 14.3038 9.4051L12.6705 12.0118C12.5038 12.2784 12.2788 12.5034 12.0122 12.6718L9.4055 14.3051C9.03886 14.5347 8.75281 14.8728 8.58705 15.2725C8.42129 15.6721 8.38405 16.1134 8.48049 16.5351L9.16883 19.5351C9.23916 19.8417 9.23916 20.1602 9.16883 20.4668L8.48049 23.4651C8.38368 23.8871 8.42073 24.3287 8.58651 24.7287C8.75228 25.1286 9.03854 25.467 9.4055 25.6968L12.0122 27.3301C12.2788 27.4968 12.5038 27.7218 12.6722 27.9884L14.3055 30.5951C14.7755 31.3468 15.6722 31.7184 16.5372 31.5201L19.5338 30.8318C19.8409 30.7612 20.1601 30.7612 20.4672 30.8318L23.4655 31.5201C23.8875 31.6169 24.3291 31.5799 24.7291 31.4141C25.129 31.2483 25.4674 30.9621 25.6972 30.5951L27.3305 27.9884C27.4972 27.7218 27.7222 27.4968 27.9888 27.3301L30.5972 25.6968C30.9641 25.4667 31.2503 25.1279 31.4157 24.7277C31.5812 24.3274 31.6178 23.8855 31.5205 23.4634L30.8338 20.4668C30.7632 20.1597 30.7632 19.8405 30.8338 19.5334L31.5222 16.5351C31.6191 16.1133 31.5823 15.6718 31.4169 15.2718C31.2514 14.8719 30.9655 14.5334 30.5988 14.3034L27.9905 12.6701C27.7242 12.5031 27.4991 12.2781 27.3322 12.0118L25.6972 9.4051ZM24.8588 16.2834C24.9619 16.0939 24.9875 15.8717 24.9301 15.6637C24.8727 15.4557 24.7369 15.2781 24.5512 15.1682C24.3655 15.0583 24.1444 15.0247 23.9345 15.0745C23.7245 15.1242 23.5421 15.2535 23.4255 15.4351L19.0672 22.8118L16.4355 20.2918C16.3574 20.2116 16.264 20.148 16.1608 20.1047C16.0576 20.0614 15.9468 20.0394 15.8349 20.0399C15.723 20.0403 15.6123 20.0634 15.5095 20.1075C15.4067 20.1517 15.3138 20.2162 15.2365 20.297C15.1591 20.3778 15.0988 20.4734 15.0592 20.5781C15.0195 20.6827 15.0014 20.7943 15.0058 20.9061C15.0102 21.0179 15.0371 21.1277 15.0849 21.2289C15.1327 21.3301 15.2003 21.4206 15.2838 21.4951L18.6738 24.7434C18.7646 24.8302 18.8737 24.8953 18.9932 24.934C19.1126 24.9726 19.2392 24.9838 19.3636 24.9667C19.4879 24.9495 19.6068 24.9045 19.7113 24.8349C19.8158 24.7654 19.9033 24.6732 19.9672 24.5651L24.8588 16.2834Z" fill="#4D4D4D"/>
</svg>
