<svg width="32" height="29" viewBox="0 0 32 29" fill="none" xmlns="http://www.w3.org/2000/svg">
<path d="M8.5625 0.1875C6.23669 0.1875 4.0915 1.10125 2.53387 2.78638C0.977312 4.4715 0.0625 6.86637 0.0625 9.75C0.0625 12.1332 1.07719 14.5132 2.48288 16.6807C2.70246 17.0186 2.9316 17.3525 3.17031 17.6826L4.41344 17.1238C4.6249 17.0302 4.7936 16.8607 4.88625 16.6488L4.88837 16.6435L4.94469 16.5107C4.7096 16.1882 4.4832 15.8594 4.26575 15.5247C2.96631 13.5208 2.1875 11.5509 2.1875 9.75C2.1875 7.32113 2.9525 5.466 4.09469 4.22925C5.23688 2.9925 6.80937 2.3125 8.5625 2.3125C10.9 2.3125 12.4481 3.23688 13.4574 4.15912C13.9685 4.62663 14.3468 5.09837 14.6198 5.46812L14.8089 5.72737L14.8217 5.74544L14.9726 5.95262C15.0183 6.01425 15.0863 6.1035 15.1638 6.18425C15.1999 6.22356 15.2701 6.29262 15.3646 6.3585C15.4358 6.40844 15.6664 6.5625 16.0021 6.5625C16.3421 6.5625 16.5738 6.40525 16.6439 6.35637C16.7374 6.28944 16.8064 6.22037 16.8436 6.18106C16.918 6.10137 16.986 6.01213 17.0317 5.95156L17.1794 5.74756L17.1943 5.72631L17.3823 5.46706C17.7257 4.99411 18.1146 4.55603 18.5436 4.15912C19.5519 3.23688 21.0989 2.3125 23.4375 2.3125C25.2852 2.3125 26.8513 2.99887 27.9638 4.22287C29.0815 5.45219 29.8125 7.30625 29.8125 9.75C29.8125 11.586 29.0316 13.5739 27.7332 15.581C26.4422 17.5764 24.6976 19.5037 22.9073 21.1963C21.3357 22.6767 19.6717 24.0557 17.9253 25.3252C17.2304 25.8288 16.6471 26.2219 16.2284 26.4854L16.0053 26.6236L15.779 26.4822C15.3604 26.2166 14.776 25.8193 14.0801 25.3103C13.0413 24.5476 12.0312 23.7467 11.0519 22.9091L10.1807 24.9544C11.0406 25.6714 11.9226 26.3617 12.8252 27.0241C13.5488 27.5554 14.1725 27.9804 14.64 28.2768C14.8716 28.4234 15.0756 28.5456 15.2393 28.6349C15.32 28.6784 15.4061 28.7231 15.4889 28.7592C15.5314 28.7783 15.5849 28.7985 15.6494 28.8197C15.6919 28.8325 15.8289 28.875 16.0021 28.875C16.1743 28.875 16.3103 28.8325 16.3528 28.8197C16.4165 28.7992 16.4696 28.7794 16.5121 28.7603C16.5964 28.7235 16.679 28.6831 16.7597 28.6391C16.9233 28.5509 17.1262 28.4309 17.3579 28.2853C17.8254 27.9921 18.4491 27.5713 19.1726 27.0454C20.9936 25.7221 22.7286 24.2845 24.3672 22.7412C26.2287 20.9806 28.1029 18.9236 29.5182 16.7349C30.9249 14.5589 31.9375 12.164 31.9375 9.75C31.9375 6.88125 31.0747 4.48531 29.5362 2.79275C27.9924 1.09488 25.8388 0.1875 23.4375 0.1875C20.4636 0.1875 18.4246 1.38813 17.1093 2.59088C16.7101 2.95797 16.3396 3.35509 16.0011 3.77875C15.6618 3.35501 15.2907 2.95789 14.8907 2.59088C13.5754 1.38813 11.5375 0.1875 8.5625 0.1875Z" fill="white"/>
<path d="M11.2209 18.0906C10.764 17.8888 10.4134 17.5169 10.2115 17.06L8.71337 13.5431C8.65185 13.4165 8.55596 13.3098 8.43665 13.2351C8.31735 13.1605 8.17943 13.1209 8.03868 13.1209C7.89793 13.1209 7.76002 13.1605 7.64071 13.2351C7.5214 13.3098 7.42551 13.4165 7.364 13.5431L5.86587 17.06C5.67462 17.5169 5.31337 17.8781 4.8565 18.0906L2.96525 18.9406C2.83865 19.0021 2.73192 19.098 2.65724 19.2173C2.58257 19.3367 2.54297 19.4746 2.54297 19.6153C2.54297 19.7561 2.58257 19.894 2.65724 20.0133C2.73192 20.1326 2.83865 20.2285 2.96525 20.29L4.8565 21.14C5.31337 21.3419 5.664 21.7138 5.86587 22.1706L7.364 25.6875C7.64025 26.2506 8.43712 26.2506 8.71337 25.6875L10.2115 22.1706C10.4027 21.7138 10.764 21.3525 11.2209 21.14L13.1121 20.29C13.2387 20.2285 13.3455 20.1326 13.4201 20.0133C13.4948 19.894 13.5344 19.7561 13.5344 19.6153C13.5344 19.4746 13.4948 19.3367 13.4201 19.2173C13.3455 19.098 13.2387 19.0021 13.1121 18.9406L11.2209 18.0906ZM25.1609 6.55188C25.2671 6.79625 25.4584 6.99813 25.7027 7.10438L26.7227 7.55063C27.0309 7.69938 27.0309 8.135 26.7227 8.28376L25.6921 8.74063C25.4477 8.84688 25.2565 9.04875 25.1502 9.29313L24.3427 11.195C24.194 11.4925 23.7584 11.4925 23.6096 11.195L22.8021 9.29313C22.6974 9.04739 22.5039 8.85013 22.2602 8.74063L21.2296 8.28376C21.1603 8.2508 21.1018 8.19888 21.0608 8.134C21.0198 8.06911 20.998 7.99394 20.998 7.91719C20.998 7.84044 21.0198 7.76527 21.0608 7.70039C21.1018 7.63551 21.1603 7.58358 21.2296 7.55063L22.2602 7.09376C22.5046 6.98751 22.6959 6.78563 22.8021 6.54125L23.6202 4.65C23.769 4.3525 24.2046 4.3525 24.3534 4.65L25.1609 6.55188Z" fill="white"/>
</svg>
