<svg width="14" height="18" viewBox="0 0 14 18" fill="none" xmlns="http://www.w3.org/2000/svg">
<path d="M1.632 18V12.072H0.24V10.296H1.632V8.568H0.24V6.792H1.632V0.863999H5.4L7.272 6.792H9.456V0.863999H12.12V6.792H13.488V8.568H12.12V10.296H13.488V12.072H12.12V18H8.328L6.408 12.072H4.296V18H1.632ZM4.296 10.296H5.88L5.352 8.568H4.248L4.296 10.296ZM9.528 14.256H9.648L9.552 12.072H8.904L9.528 14.256ZM4.2 6.792H4.872L4.176 4.488H4.08L4.2 6.792ZM8.4 10.296H9.504L9.456 8.568H7.848L8.4 10.296Z" fill="#1A1A1A"/>
</svg>
