<svg width="101" height="100" viewBox="0 0 101 100" fill="none" xmlns="http://www.w3.org/2000/svg">
<path d="M50.4997 94.7916C25.7913 94.7916 5.70801 74.7083 5.70801 49.9999C5.70801 25.2916 25.7913 5.20825 50.4997 5.20825C75.208 5.20825 95.2913 25.2916 95.2913 49.9999C95.2913 74.7083 75.208 94.7916 50.4997 94.7916ZM50.4997 11.4583C29.2497 11.4583 11.958 28.7499 11.958 49.9999C11.958 71.2499 29.2497 88.5416 50.4997 88.5416C71.7497 88.5416 89.0413 71.2499 89.0413 49.9999C89.0413 28.7499 71.7497 11.4583 50.4997 11.4583Z" fill="#F10B0E"/>
<path d="M38.7083 64.9167C37.9167 64.9167 37.125 64.625 36.5 64C35.2917 62.7917 35.2917 60.7917 36.5 59.5833L60.0833 36C61.2917 34.7917 63.2917 34.7917 64.5 36C65.7083 37.2083 65.7083 39.2083 64.5 40.4167L40.9167 64C40.3333 64.625 39.5 64.9167 38.7083 64.9167Z" fill="#F10B0E"/>
<path d="M62.2917 64.9167C61.5 64.9167 60.7083 64.625 60.0833 64L36.5 40.4167C35.2917 39.2083 35.2917 37.2083 36.5 36C37.7083 34.7917 39.7083 34.7917 40.9167 36L64.5 59.5833C65.7083 60.7917 65.7083 62.7917 64.5 64C63.875 64.625 63.0833 64.9167 62.2917 64.9167Z" fill="#F10B0E"/>
</svg>
