<svg width="184" height="24" viewBox="0 0 184 24" fill="none" xmlns="http://www.w3.org/2000/svg">
<path d="M29.7309 3.50965L31.4909 7.02965C31.7309 7.51965 32.3709 7.98965 32.9109 8.07965L36.1009 8.60965C38.1409 8.94965 38.6209 10.4296 37.1509 11.8896L34.6709 14.3696C34.2509 14.7896 34.0209 15.5996 34.1509 16.1796L34.8609 19.2496C35.4209 21.6796 34.1309 22.6196 31.9809 21.3496L28.9909 19.5796C28.4509 19.2596 27.5609 19.2596 27.0109 19.5796L24.0209 21.3496C21.8809 22.6196 20.5809 21.6696 21.1409 19.2496L21.8509 16.1796C21.9809 15.5996 21.7509 14.7896 21.3309 14.3696L18.8509 11.8896C17.3909 10.4296 17.8609 8.94965 19.9009 8.60965L23.0909 8.07965C23.6209 7.98965 24.2609 7.51965 24.5009 7.02965L26.2609 3.50965C27.2209 1.59965 28.7809 1.59965 29.7309 3.50965Z" fill="#FFC107"/>
<path d="M61.7309 3.50965L63.4909 7.02965C63.7309 7.51965 64.3709 7.98965 64.9109 8.07965L68.1009 8.60965C70.1409 8.94965 70.6209 10.4296 69.1509 11.8896L66.6709 14.3696C66.2509 14.7896 66.0209 15.5996 66.1509 16.1796L66.8609 19.2496C67.4209 21.6796 66.1309 22.6196 63.9809 21.3496L60.9909 19.5796C60.4509 19.2596 59.5609 19.2596 59.0109 19.5796L56.0209 21.3496C53.8809 22.6196 52.5809 21.6696 53.1409 19.2496L53.8509 16.1796C53.9809 15.5996 53.7509 14.7896 53.3309 14.3696L50.8509 11.8896C49.3909 10.4296 49.8609 8.94965 51.9009 8.60965L55.0909 8.07965C55.6209 7.98965 56.2609 7.51965 56.5009 7.02965L58.2609 3.50965C59.2209 1.59965 60.7809 1.59965 61.7309 3.50965Z" fill="#FFC107"/>
<path d="M93.7309 3.50965L95.4909 7.02965C95.7309 7.51965 96.3709 7.98965 96.9109 8.07965L100.101 8.60965C102.141 8.94965 102.621 10.4296 101.151 11.8896L98.6709 14.3696C98.2509 14.7896 98.0209 15.5996 98.1509 16.1796L98.8609 19.2496C99.4209 21.6796 98.1309 22.6196 95.9809 21.3496L92.9909 19.5796C92.4509 19.2596 91.5609 19.2596 91.0109 19.5796L88.0209 21.3496C85.8809 22.6196 84.5809 21.6696 85.1409 19.2496L85.8509 16.1796C85.9809 15.5996 85.7509 14.7896 85.3309 14.3696L82.8509 11.8896C81.3909 10.4296 81.8609 8.94965 83.9009 8.60965L87.0909 8.07965C87.6209 7.98965 88.2609 7.51965 88.5009 7.02965L90.2609 3.50965C91.2209 1.59965 92.7809 1.59965 93.7309 3.50965Z" fill="#FFC107"/>
<path d="M125.731 3.50965L127.491 7.02965C127.731 7.51965 128.371 7.98965 128.911 8.07965L132.101 8.60965C134.141 8.94965 134.621 10.4296 133.151 11.8896L130.671 14.3696C130.251 14.7896 130.021 15.5996 130.151 16.1796L130.861 19.2496C131.421 21.6796 130.131 22.6196 127.981 21.3496L124.991 19.5796C124.451 19.2596 123.561 19.2596 123.011 19.5796L120.021 21.3496C117.881 22.6196 116.581 21.6696 117.141 19.2496L117.851 16.1796C117.981 15.5996 117.751 14.7896 117.331 14.3696L114.851 11.8896C113.391 10.4296 113.861 8.94965 115.901 8.60965L119.091 8.07965C119.621 7.98965 120.261 7.51965 120.501 7.02965L122.261 3.50965C123.221 1.59965 124.781 1.59965 125.731 3.50965Z" fill="#FFC107"/>
<path d="M157.731 3.50965L159.491 7.02965C159.731 7.51965 160.371 7.98965 160.911 8.07965L164.101 8.60965C166.141 8.94965 166.621 10.4296 165.151 11.8896L162.671 14.3696C162.251 14.7896 162.021 15.5996 162.151 16.1796L162.861 19.2496C163.421 21.6796 162.131 22.6196 159.981 21.3496L156.991 19.5796C156.451 19.2596 155.561 19.2596 155.011 19.5796L152.021 21.3496C149.881 22.6196 148.581 21.6696 149.141 19.2496L149.851 16.1796C149.981 15.5996 149.751 14.7896 149.331 14.3696L146.851 11.8896C145.391 10.4296 145.861 8.94965 147.901 8.60965L151.091 8.07965C151.621 7.98965 152.261 7.51965 152.501 7.02965L154.261 3.50965C155.221 1.59965 156.781 1.59965 157.731 3.50965Z" fill="#FFC107"/>
</svg>
