<svg width="24" height="25" viewBox="0 0 24 25" fill="none" xmlns="http://www.w3.org/2000/svg">
<g opacity="0.8">
<path d="M6 12.5C5.99856 13.9165 6.49829 15.2877 7.41074 16.3712C8.32318 17.4546 9.58951 18.1802 10.9856 18.4197C12.3816 18.6592 13.8174 18.397 15.0388 17.6797C16.2601 16.9623 17.1883 15.836 17.659 14.5H12V10.5H21.805V14.5H21.8C20.873 19.064 16.838 22.5 12 22.5C6.477 22.5 2 18.023 2 12.5C2 6.977 6.477 2.5 12 2.5C13.6345 2.49884 15.2444 2.89875 16.6883 3.66467C18.1323 4.43058 19.3662 5.5391 20.282 6.893L17.004 9.188C16.2924 8.11241 15.2532 7.29473 14.0404 6.85617C12.8275 6.4176 11.5057 6.38149 10.2707 6.75319C9.03579 7.12488 7.95347 7.88461 7.18421 8.91974C6.41495 9.95487 5.9997 11.2103 6 12.5Z" fill="#050150"/>
</g>
</svg>
