<svg width="24" height="25" viewBox="0 0 24 25" fill="none" xmlns="http://www.w3.org/2000/svg">
<g opacity="0.8">
<path d="M12.5932 23.7584L12.5822 23.7604L12.5112 23.7954L12.4912 23.7994L12.4772 23.7954L12.4062 23.7604C12.3955 23.7571 12.3875 23.7588 12.3822 23.7654L12.3782 23.7754L12.3612 24.2034L12.3662 24.2234L12.3762 24.2364L12.4802 24.3104L12.4952 24.3144L12.5072 24.3104L12.6112 24.2364L12.6232 24.2204L12.6272 24.2034L12.6102 23.7764C12.6075 23.7658 12.6018 23.7598 12.5932 23.7584ZM12.8582 23.6454L12.8452 23.6474L12.6602 23.7404L12.6502 23.7504L12.6472 23.7614L12.6652 24.1914L12.6702 24.2034L12.6782 24.2104L12.8792 24.3034C12.8918 24.3068 12.9015 24.3041 12.9082 24.2954L12.9122 24.2814L12.8782 23.6674C12.8748 23.6554 12.8682 23.6481 12.8582 23.6454ZM12.1432 23.6474C12.1388 23.6448 12.1335 23.6439 12.1285 23.645C12.1234 23.6461 12.119 23.6491 12.1162 23.6534L12.1102 23.6674L12.0762 24.2814C12.0768 24.2934 12.0825 24.3014 12.0932 24.3054L12.1082 24.3034L12.3092 24.2104L12.3192 24.2024L12.3232 24.1914L12.3402 23.7614L12.3372 23.7494L12.3272 23.7394L12.1432 23.6474Z" fill="#050150"/>
<path d="M13.0642 7.18543L13.8092 6.87943C14.4142 6.63943 15.1962 6.39443 16.1192 6.54943C18.0102 6.86743 19.3142 7.88843 20.0912 9.24243C20.3912 9.76443 20.1492 10.4524 19.5892 10.6714C19.1095 10.8591 18.6994 11.1903 18.415 11.6199C18.1306 12.0494 17.9858 12.5563 18.0003 13.0712C18.0149 13.5862 18.1881 14.084 18.4963 14.4968C18.8045 14.9096 19.2326 15.2172 19.7222 15.3774C20.2402 15.5474 20.5322 16.1224 20.3622 16.6404C19.9202 17.9824 19.2842 19.2214 18.5312 20.2214C17.7872 21.2094 16.8792 22.0294 15.8682 22.4304C15.2082 22.6904 14.5002 22.5934 13.8232 22.4254L13.4212 22.3184L12.8242 22.1454C12.5532 22.0664 12.2742 21.9984 12.0002 21.9984C11.7252 21.9984 11.4472 22.0664 11.1762 22.1454L10.5792 22.3184L10.1772 22.4254C9.50021 22.5934 8.7912 22.6914 8.13221 22.4304C6.85921 21.9264 5.73621 20.7504 4.88721 19.3634C3.9692 17.8355 3.36287 16.1409 3.1032 14.3774C2.8762 12.8234 2.9992 11.0784 3.7182 9.60243C4.4582 8.08143 5.81421 6.89743 7.88121 6.54943C8.72121 6.40843 9.4432 6.59743 10.0212 6.81443L10.3522 6.94443L10.9362 7.18543C11.3362 7.34243 11.6512 7.43443 12.0002 7.43443C12.3482 7.43443 12.6642 7.34243 13.0642 7.18543ZM11.7682 3.26843C12.7442 2.29143 14.2432 2.20743 14.5962 2.56143C14.9502 2.91443 14.8662 4.41343 13.8892 5.38943C12.9132 6.36543 11.4142 6.44943 11.0612 6.09643C10.7072 5.74343 10.7912 4.24443 11.7682 3.26843Z" fill="#050150"/>
</g>
</svg>
