<svg width="121" height="120" viewBox="0 0 121 120" fill="none" xmlns="http://www.w3.org/2000/svg">
<path opacity="0.4" d="M60.5 110C88.1142 110 110.5 87.6142 110.5 60C110.5 32.3858 88.1142 10 60.5 10C32.8858 10 10.5 32.3858 10.5 60C10.5 87.6142 32.8858 110 60.5 110Z" fill="#28A745"/>
<path d="M53.4002 77.9C52.4002 77.9 51.4502 77.5 50.7502 76.8L36.6002 62.65C35.1502 61.2 35.1502 58.8 36.6002 57.35C38.0502 55.9 40.4502 55.9 41.9002 57.35L53.4002 68.85L79.1002 43.15C80.5502 41.7 82.9502 41.7 84.4002 43.15C85.8502 44.6 85.8502 47 84.4002 48.45L56.0502 76.8C55.3502 77.5 54.4002 77.9 53.4002 77.9Z" fill="#28A745"/>
</svg>
